%TF.GenerationSoftware,KiCad,Pcbnew,(6.0.1)*%
%TF.CreationDate,2022-04-22T15:57:16+02:00*%
%TF.ProjectId,BuitPCB,42756974-5043-4422-9e6b-696361645f70,rev?*%
%TF.SameCoordinates,Original*%
%TF.FileFunction,Soldermask,Top*%
%TF.FilePolarity,Negative*%
%FSLAX46Y46*%
G04 Gerber Fmt 4.6, Leading zero omitted, Abs format (unit mm)*
G04 Created by KiCad (PCBNEW (6.0.1)) date 2022-04-22 15:57:16*
%MOMM*%
%LPD*%
G01*
G04 APERTURE LIST*
G04 Aperture macros list*
%AMRoundRect*
0 Rectangle with rounded corners*
0 $1 Rounding radius*
0 $2 $3 $4 $5 $6 $7 $8 $9 X,Y pos of 4 corners*
0 Add a 4 corners polygon primitive as box body*
4,1,4,$2,$3,$4,$5,$6,$7,$8,$9,$2,$3,0*
0 Add four circle primitives for the rounded corners*
1,1,$1+$1,$2,$3*
1,1,$1+$1,$4,$5*
1,1,$1+$1,$6,$7*
1,1,$1+$1,$8,$9*
0 Add four rect primitives between the rounded corners*
20,1,$1+$1,$2,$3,$4,$5,0*
20,1,$1+$1,$4,$5,$6,$7,0*
20,1,$1+$1,$6,$7,$8,$9,0*
20,1,$1+$1,$8,$9,$2,$3,0*%
G04 Aperture macros list end*
%ADD10R,1.600000X1.600000*%
%ADD11C,1.600000*%
%ADD12R,1.300000X1.300000*%
%ADD13C,1.300000*%
%ADD14RoundRect,0.250000X-0.250000X-0.475000X0.250000X-0.475000X0.250000X0.475000X-0.250000X0.475000X0*%
%ADD15RoundRect,0.243750X-0.456250X0.243750X-0.456250X-0.243750X0.456250X-0.243750X0.456250X0.243750X0*%
%ADD16C,1.700000*%
%ADD17R,3.150000X2.000000*%
%ADD18RoundRect,0.250000X0.600000X0.725000X-0.600000X0.725000X-0.600000X-0.725000X0.600000X-0.725000X0*%
%ADD19O,1.700000X1.950000*%
%ADD20RoundRect,0.250000X0.450000X-0.262500X0.450000X0.262500X-0.450000X0.262500X-0.450000X-0.262500X0*%
%ADD21RoundRect,0.250000X0.262500X0.450000X-0.262500X0.450000X-0.262500X-0.450000X0.262500X-0.450000X0*%
%ADD22R,3.100000X1.600000*%
%ADD23RoundRect,0.062500X0.337500X0.062500X-0.337500X0.062500X-0.337500X-0.062500X0.337500X-0.062500X0*%
%ADD24RoundRect,0.062500X0.062500X0.337500X-0.062500X0.337500X-0.062500X-0.337500X0.062500X-0.337500X0*%
%ADD25R,3.600000X3.600000*%
%ADD26RoundRect,0.250000X0.725000X-0.600000X0.725000X0.600000X-0.725000X0.600000X-0.725000X-0.600000X0*%
%ADD27O,1.950000X1.700000*%
%ADD28C,1.524000*%
%ADD29C,2.540000*%
%ADD30C,3.000000*%
%ADD31R,0.900000X0.800000*%
%ADD32RoundRect,0.250000X0.475000X-0.250000X0.475000X0.250000X-0.475000X0.250000X-0.475000X-0.250000X0*%
%ADD33RoundRect,0.250000X-0.475000X0.250000X-0.475000X-0.250000X0.475000X-0.250000X0.475000X0.250000X0*%
%ADD34RoundRect,0.250000X-0.750000X0.600000X-0.750000X-0.600000X0.750000X-0.600000X0.750000X0.600000X0*%
%ADD35O,2.000000X1.700000*%
%ADD36RoundRect,0.250000X-0.262500X-0.450000X0.262500X-0.450000X0.262500X0.450000X-0.262500X0.450000X0*%
%ADD37RoundRect,0.250000X-0.725000X0.600000X-0.725000X-0.600000X0.725000X-0.600000X0.725000X0.600000X0*%
%ADD38R,1.524000X1.524000*%
%ADD39RoundRect,0.250000X0.250000X0.475000X-0.250000X0.475000X-0.250000X-0.475000X0.250000X-0.475000X0*%
%ADD40C,4.000000*%
%ADD41RoundRect,0.250000X-0.600000X-0.725000X0.600000X-0.725000X0.600000X0.725000X-0.600000X0.725000X0*%
G04 APERTURE END LIST*
D10*
%TO.C,U1*%
X153252200Y-52853800D03*
D11*
X153252200Y-55393800D03*
X153252200Y-57933800D03*
X153252200Y-60473800D03*
X153252200Y-63013800D03*
X153252200Y-65553800D03*
X153252200Y-68093800D03*
X153252200Y-70633800D03*
X153252200Y-73173800D03*
X153252200Y-75713800D03*
X153252200Y-78253800D03*
X153252200Y-80793800D03*
X153252200Y-83333800D03*
X153252200Y-85873800D03*
X153252200Y-88413800D03*
X153252200Y-90953800D03*
X153252200Y-93493800D03*
X153252200Y-96033800D03*
X153252200Y-98573800D03*
X153252200Y-101113800D03*
X153252200Y-103653800D03*
X153252200Y-106193800D03*
X153252200Y-108733800D03*
X153252200Y-111273800D03*
X168492200Y-111273800D03*
X168492200Y-108733800D03*
X168492200Y-106193800D03*
X168492200Y-103653800D03*
X168492200Y-101113800D03*
X168492200Y-98573800D03*
X168492200Y-96033800D03*
X168492200Y-93493800D03*
X168492200Y-90953800D03*
X168492200Y-88413800D03*
X168492200Y-85873800D03*
X168492200Y-83333800D03*
X168492200Y-80793800D03*
X168492200Y-78253800D03*
X168492200Y-75713800D03*
X168492200Y-73173800D03*
X168492200Y-70633800D03*
X168492200Y-68093800D03*
X168492200Y-65553800D03*
X168492200Y-63013800D03*
X168492200Y-60473800D03*
X168492200Y-57933800D03*
X168492200Y-55393800D03*
X168492200Y-52853800D03*
X165952200Y-55393800D03*
X155792200Y-98573800D03*
X158332200Y-98573800D03*
X160872200Y-98573800D03*
X163412200Y-98573800D03*
X165952200Y-98573800D03*
D10*
X156303000Y-59153000D03*
D11*
X156303000Y-61693000D03*
X156303000Y-64233000D03*
X156303000Y-66773000D03*
X156303000Y-69313000D03*
D12*
X166053800Y-65823800D03*
D13*
X164053800Y-65823800D03*
X162053800Y-65823800D03*
X162053800Y-67823800D03*
X164053800Y-67823800D03*
X166053800Y-67823800D03*
X162142200Y-53583800D03*
X159602200Y-53583800D03*
%TD*%
D14*
%TO.C,C1*%
X141637000Y-72234000D03*
X143537000Y-72234000D03*
%TD*%
%TO.C,C2*%
X195961000Y-70104000D03*
X197861000Y-70104000D03*
%TD*%
%TO.C,C3*%
X195961000Y-67310000D03*
X197861000Y-67310000D03*
%TD*%
D15*
%TO.C,D1*%
X128270000Y-78564500D03*
X128270000Y-80439500D03*
%TD*%
D16*
%TO.C,J4*%
X179000000Y-53376000D03*
X179000000Y-59376000D03*
D17*
X182475000Y-55876000D03*
X175525000Y-55876000D03*
X182475000Y-52676000D03*
X175525000Y-52676000D03*
X175525000Y-59376000D03*
X182475000Y-59376000D03*
%TD*%
D18*
%TO.C,J11*%
X141952000Y-108048000D03*
D19*
X139452000Y-108048000D03*
X136952000Y-108048000D03*
X134452000Y-108048000D03*
%TD*%
D20*
%TO.C,R1*%
X128270000Y-75334500D03*
X128270000Y-73509500D03*
%TD*%
D21*
%TO.C,R3*%
X121562500Y-72390000D03*
X119737500Y-72390000D03*
%TD*%
D22*
%TO.C,U2*%
X132715000Y-74930000D03*
X132715000Y-77470000D03*
X132715000Y-80010000D03*
X132715000Y-82550000D03*
X141605000Y-82550000D03*
X141605000Y-80010000D03*
X141605000Y-77470000D03*
X141605000Y-74930000D03*
%TD*%
D23*
%TO.C,U4*%
X189250000Y-73450000D03*
X189250000Y-72950000D03*
X189250000Y-72450000D03*
X189250000Y-71950000D03*
X189250000Y-71450000D03*
X189250000Y-70950000D03*
X189250000Y-70450000D03*
X189250000Y-69950000D03*
D24*
X188550000Y-69250000D03*
X188050000Y-69250000D03*
X187550000Y-69250000D03*
X187050000Y-69250000D03*
X186550000Y-69250000D03*
X186050000Y-69250000D03*
X185550000Y-69250000D03*
X185050000Y-69250000D03*
D23*
X184350000Y-69950000D03*
X184350000Y-70450000D03*
X184350000Y-70950000D03*
X184350000Y-71450000D03*
X184350000Y-71950000D03*
X184350000Y-72450000D03*
X184350000Y-72950000D03*
X184350000Y-73450000D03*
D24*
X185050000Y-74150000D03*
X185550000Y-74150000D03*
X186050000Y-74150000D03*
X186550000Y-74150000D03*
X187050000Y-74150000D03*
X187550000Y-74150000D03*
X188050000Y-74150000D03*
X188550000Y-74150000D03*
D25*
X186800000Y-71700000D03*
%TD*%
D26*
%TO.C,J5*%
X103000000Y-133000000D03*
D27*
X103000000Y-130500000D03*
X103000000Y-128000000D03*
X103000000Y-125500000D03*
X103000000Y-123000000D03*
%TD*%
D18*
%TO.C,J9*%
X169000000Y-147000000D03*
D19*
X166500000Y-147000000D03*
X164000000Y-147000000D03*
X161500000Y-147000000D03*
X159000000Y-147000000D03*
%TD*%
D18*
%TO.C,J12*%
X143000000Y-121000000D03*
D19*
X140500000Y-121000000D03*
X138000000Y-121000000D03*
X135500000Y-121000000D03*
X133000000Y-121000000D03*
%TD*%
D28*
%TO.C,J2*%
X118030000Y-53535000D03*
X108030000Y-53535000D03*
D29*
X120530000Y-63535000D03*
X118030000Y-66035000D03*
X113030000Y-63535000D03*
X108030000Y-66035000D03*
X105530000Y-63535000D03*
%TD*%
D10*
%TO.C,J3*%
X134000000Y-138253000D03*
D11*
X136500000Y-138253000D03*
X138500000Y-138253000D03*
X141000000Y-138253000D03*
D30*
X144070000Y-140963000D03*
X130930000Y-140963000D03*
%TD*%
D31*
%TO.C,U3*%
X193643000Y-69657000D03*
X193643000Y-67757000D03*
X191643000Y-68707000D03*
%TD*%
D32*
%TO.C,C4*%
X186595600Y-80220200D03*
X186595600Y-78320200D03*
%TD*%
%TO.C,C7*%
X181595600Y-80220200D03*
X181595600Y-78320200D03*
%TD*%
D33*
%TO.C,C8*%
X188087000Y-65598000D03*
X188087000Y-67498000D03*
%TD*%
D14*
%TO.C,C9*%
X180888600Y-69596000D03*
X182788600Y-69596000D03*
%TD*%
D33*
%TO.C,C11*%
X184835800Y-89982000D03*
X184835800Y-91882000D03*
%TD*%
D34*
%TO.C,J8*%
X197000000Y-90000000D03*
D35*
X197000000Y-92500000D03*
%TD*%
D36*
%TO.C,R14*%
X188087500Y-90000000D03*
X189912500Y-90000000D03*
%TD*%
D28*
%TO.C,J1*%
X133430000Y-53535000D03*
X143430000Y-53535000D03*
D29*
X145930000Y-63535000D03*
X143430000Y-66035000D03*
X138430000Y-63535000D03*
X133430000Y-66035000D03*
X130930000Y-63535000D03*
%TD*%
D37*
%TO.C,J7*%
X196850000Y-123000000D03*
D27*
X196850000Y-125500000D03*
X196850000Y-128000000D03*
X196850000Y-130500000D03*
X196850000Y-133000000D03*
%TD*%
D21*
%TO.C,R4*%
X148486500Y-71120000D03*
X146661500Y-71120000D03*
%TD*%
D28*
%TO.C,U6*%
X118711000Y-86204000D03*
X116171000Y-86204000D03*
X113631000Y-86204000D03*
X111091000Y-86204000D03*
X111091000Y-88744000D03*
X113631000Y-88744000D03*
X116171000Y-88744000D03*
D38*
X118711000Y-88744000D03*
%TD*%
D16*
%TO.C,J6*%
X193000000Y-59468000D03*
X193000000Y-53468000D03*
D17*
X189525000Y-55968000D03*
X196475000Y-55968000D03*
X189525000Y-52768000D03*
X196475000Y-52768000D03*
X196475000Y-59468000D03*
X189525000Y-59468000D03*
%TD*%
D14*
%TO.C,C10*%
X188050000Y-85000000D03*
X189950000Y-85000000D03*
%TD*%
D21*
%TO.C,R2*%
X121689500Y-77343000D03*
X119864500Y-77343000D03*
%TD*%
D39*
%TO.C,C6*%
X147347000Y-74901000D03*
X145447000Y-74901000D03*
%TD*%
D36*
%TO.C,R6*%
X174620200Y-90064800D03*
X176445200Y-90064800D03*
%TD*%
D39*
%TO.C,C12*%
X147347000Y-78330000D03*
X145447000Y-78330000D03*
%TD*%
D40*
%TO.C,*%
X105000000Y-75000000D03*
%TD*%
%TO.C,*%
X195000000Y-145000000D03*
%TD*%
D21*
%TO.C,R8*%
X183758500Y-99412000D03*
X181933500Y-99412000D03*
%TD*%
D39*
%TO.C,C5*%
X147347000Y-81632000D03*
X145447000Y-81632000D03*
%TD*%
D36*
%TO.C,R7*%
X178157500Y-99412000D03*
X179982500Y-99412000D03*
%TD*%
D40*
%TO.C,*%
X195000000Y-75000000D03*
%TD*%
%TO.C,REF\u002A\u002A*%
X105000000Y-145000000D03*
%TD*%
D41*
%TO.C,J10*%
X133300000Y-92800000D03*
D19*
X135800000Y-92800000D03*
X138300000Y-92800000D03*
X140800000Y-92800000D03*
X143300000Y-92800000D03*
%TD*%
D21*
%TO.C,R5*%
X178473400Y-92858800D03*
X176648400Y-92858800D03*
%TD*%
M02*
