M48
; DRILL file {KiCad (6.0.1)} date Fri Apr 22 15:57:20 2022
; FORMAT={-:-/ absolute / metric / decimal}
; #@! TF.CreationDate,2022-04-22T15:57:20+02:00
; #@! TF.GenerationSoftware,Kicad,Pcbnew,(6.0.1)
; #@! TF.FileFunction,Plated,1,4,PTH
FMAT,2
METRIC
; #@! TA.AperFunction,Plated,PTH,ViaDrill
T1C0.400
; #@! TA.AperFunction,Plated,PTH,ComponentDrill
T2C0.762
; #@! TA.AperFunction,Plated,PTH,ComponentDrill
T3C0.800
; #@! TA.AperFunction,Plated,PTH,ComponentDrill
T4C0.920
; #@! TA.AperFunction,Plated,PTH,ComponentDrill
T5C0.950
; #@! TA.AperFunction,Plated,PTH,ComponentDrill
T6C1.000
; #@! TA.AperFunction,Plated,PTH,ComponentDrill
T7C1.100
; #@! TA.AperFunction,Plated,PTH,ComponentDrill
T8C1.400
; #@! TA.AperFunction,Plated,PTH,ComponentDrill
T9C1.524
; #@! TA.AperFunction,Plated,PTH,ComponentDrill
T10C1.540
; #@! TA.AperFunction,Plated,PTH,ComponentDrill
T11C1.700
; #@! TA.AperFunction,Plated,PTH,ComponentDrill
T12C2.300
; #@! TA.AperFunction,Plated,PTH,ComponentDrill
T13C3.000
%
G90
G05
T1
X121.7Y-77.375
X137.075Y-131.25
X138.925Y-130.475
X139.793Y-72.488
X141.61Y-82.73
X142.968Y-72.234
X147.286Y-74.901
X147.286Y-78.33
X147.286Y-81.632
X149.19Y-71.16
X174.616Y-90.065
X175.514Y-52.867
X177.013Y-76.606
X178.172Y-99.412
X178.477Y-92.859
X178.765Y-77.013
X178.969Y-69.215
X180.34Y-99.412
X180.848Y-69.52
X181.61Y-99.412
X182.499Y-52.867
X182.601Y-67.361
X183.76Y-99.412
X184.092Y-80.22
X184.113Y-78.32
X184.328Y-67.259
X184.854Y-90.0
X184.861Y-91.897
X185.674Y-70.583
X185.674Y-71.628
X185.674Y-72.742
X186.783Y-70.583
X186.783Y-72.742
X186.8Y-71.7
X187.96Y-71.628
X187.96Y-72.742
X188.0Y-70.583
X188.036Y-84.963
X188.112Y-65.557
X189.615Y-59.558
X189.738Y-56.134
X193.63Y-69.65
X193.65Y-67.16
X196.342Y-59.69
X196.475Y-55.968
X197.927Y-67.31
X197.927Y-70.104
T2
X111.091Y-86.204
X111.091Y-88.744
X113.631Y-86.204
X113.631Y-88.744
X116.171Y-86.204
X116.171Y-88.744
X118.711Y-86.204
X118.711Y-88.744
T3
X159.602Y-53.584
X162.054Y-65.824
X162.054Y-67.824
X162.142Y-53.584
X164.054Y-65.824
X164.054Y-67.824
X166.054Y-65.824
X166.054Y-67.824
T4
X134.0Y-138.253
X136.5Y-138.253
X138.5Y-138.253
X141.0Y-138.253
T5
X103.0Y-123.0
X103.0Y-125.5
X103.0Y-128.0
X103.0Y-130.5
X103.0Y-133.0
X133.0Y-121.0
X133.3Y-92.8
X134.452Y-108.048
X135.5Y-121.0
X135.8Y-92.8
X136.952Y-108.048
X138.0Y-121.0
X138.3Y-92.8
X139.452Y-108.048
X140.5Y-121.0
X140.8Y-92.8
X141.952Y-108.048
X143.0Y-121.0
X143.3Y-92.8
X159.0Y-147.0
X161.5Y-147.0
X164.0Y-147.0
X166.5Y-147.0
X169.0Y-147.0
X196.85Y-123.0
X196.85Y-125.5
X196.85Y-128.0
X196.85Y-130.5
X196.85Y-133.0
T6
X197.0Y-90.0
X197.0Y-92.5
T7
X153.252Y-52.854
X153.252Y-55.394
X153.252Y-57.934
X153.252Y-60.474
X153.252Y-63.014
X153.252Y-65.554
X153.252Y-68.094
X153.252Y-70.634
X153.252Y-73.174
X153.252Y-75.714
X153.252Y-78.254
X153.252Y-80.794
X153.252Y-83.334
X153.252Y-85.874
X153.252Y-88.414
X153.252Y-90.954
X153.252Y-93.494
X153.252Y-96.034
X153.252Y-98.574
X153.252Y-101.114
X153.252Y-103.654
X153.252Y-106.194
X153.252Y-108.734
X153.252Y-111.274
X155.792Y-98.574
X156.303Y-59.153
X156.303Y-61.693
X156.303Y-64.233
X156.303Y-66.773
X156.303Y-69.313
X158.332Y-98.574
X160.872Y-98.574
X163.412Y-98.574
X165.952Y-55.394
X165.952Y-98.574
X168.492Y-52.854
X168.492Y-55.394
X168.492Y-57.934
X168.492Y-60.474
X168.492Y-63.014
X168.492Y-65.554
X168.492Y-68.094
X168.492Y-70.634
X168.492Y-73.174
X168.492Y-75.714
X168.492Y-78.254
X168.492Y-80.794
X168.492Y-83.334
X168.492Y-85.874
X168.492Y-88.414
X168.492Y-90.954
X168.492Y-93.494
X168.492Y-96.034
X168.492Y-98.574
X168.492Y-101.114
X168.492Y-103.654
X168.492Y-106.194
X168.492Y-108.734
X168.492Y-111.274
T8
X108.03Y-53.535
X118.03Y-53.535
X133.43Y-53.535
X143.43Y-53.535
T9
X120.53Y-63.535
X145.93Y-63.535
T10
X105.53Y-63.535
X108.03Y-66.035
X113.03Y-63.535
X118.03Y-66.035
X130.93Y-63.535
X133.43Y-66.035
X138.43Y-63.535
X143.43Y-66.035
T11
X179.0Y-53.376
X179.0Y-59.376
X193.0Y-53.468
X193.0Y-59.468
T12
X130.93Y-140.963
X144.07Y-140.963
T13
X105.0Y-75.0
X105.0Y-145.0
X195.0Y-75.0
X195.0Y-145.0
T0
M30
