%TF.GenerationSoftware,KiCad,Pcbnew,(6.0.1)*%
%TF.CreationDate,2022-04-22T15:57:16+02:00*%
%TF.ProjectId,BuitPCB,42756974-5043-4422-9e6b-696361645f70,rev?*%
%TF.SameCoordinates,Original*%
%TF.FileFunction,Copper,L4,Bot*%
%TF.FilePolarity,Positive*%
%FSLAX46Y46*%
G04 Gerber Fmt 4.6, Leading zero omitted, Abs format (unit mm)*
G04 Created by KiCad (PCBNEW (6.0.1)) date 2022-04-22 15:57:16*
%MOMM*%
%LPD*%
G01*
G04 APERTURE LIST*
G04 Aperture macros list*
%AMRoundRect*
0 Rectangle with rounded corners*
0 $1 Rounding radius*
0 $2 $3 $4 $5 $6 $7 $8 $9 X,Y pos of 4 corners*
0 Add a 4 corners polygon primitive as box body*
4,1,4,$2,$3,$4,$5,$6,$7,$8,$9,$2,$3,0*
0 Add four circle primitives for the rounded corners*
1,1,$1+$1,$2,$3*
1,1,$1+$1,$4,$5*
1,1,$1+$1,$6,$7*
1,1,$1+$1,$8,$9*
0 Add four rect primitives between the rounded corners*
20,1,$1+$1,$2,$3,$4,$5,0*
20,1,$1+$1,$4,$5,$6,$7,0*
20,1,$1+$1,$6,$7,$8,$9,0*
20,1,$1+$1,$8,$9,$2,$3,0*%
G04 Aperture macros list end*
%TA.AperFunction,ComponentPad*%
%ADD10R,1.600000X1.600000*%
%TD*%
%TA.AperFunction,ComponentPad*%
%ADD11C,1.600000*%
%TD*%
%TA.AperFunction,ComponentPad*%
%ADD12R,1.300000X1.300000*%
%TD*%
%TA.AperFunction,ComponentPad*%
%ADD13C,1.300000*%
%TD*%
%TA.AperFunction,ComponentPad*%
%ADD14C,1.700000*%
%TD*%
%TA.AperFunction,ComponentPad*%
%ADD15RoundRect,0.250000X0.600000X0.725000X-0.600000X0.725000X-0.600000X-0.725000X0.600000X-0.725000X0*%
%TD*%
%TA.AperFunction,ComponentPad*%
%ADD16O,1.700000X1.950000*%
%TD*%
%TA.AperFunction,ComponentPad*%
%ADD17RoundRect,0.250000X0.725000X-0.600000X0.725000X0.600000X-0.725000X0.600000X-0.725000X-0.600000X0*%
%TD*%
%TA.AperFunction,ComponentPad*%
%ADD18O,1.950000X1.700000*%
%TD*%
%TA.AperFunction,ComponentPad*%
%ADD19C,1.524000*%
%TD*%
%TA.AperFunction,ComponentPad*%
%ADD20C,2.540000*%
%TD*%
%TA.AperFunction,ComponentPad*%
%ADD21C,3.000000*%
%TD*%
%TA.AperFunction,ComponentPad*%
%ADD22RoundRect,0.250000X-0.750000X0.600000X-0.750000X-0.600000X0.750000X-0.600000X0.750000X0.600000X0*%
%TD*%
%TA.AperFunction,ComponentPad*%
%ADD23O,2.000000X1.700000*%
%TD*%
%TA.AperFunction,ComponentPad*%
%ADD24RoundRect,0.250000X-0.725000X0.600000X-0.725000X-0.600000X0.725000X-0.600000X0.725000X0.600000X0*%
%TD*%
%TA.AperFunction,ComponentPad*%
%ADD25R,1.524000X1.524000*%
%TD*%
%TA.AperFunction,ComponentPad*%
%ADD26C,4.000000*%
%TD*%
%TA.AperFunction,ComponentPad*%
%ADD27RoundRect,0.250000X-0.600000X-0.725000X0.600000X-0.725000X0.600000X0.725000X-0.600000X0.725000X0*%
%TD*%
%TA.AperFunction,ViaPad*%
%ADD28C,0.800000*%
%TD*%
%TA.AperFunction,Conductor*%
%ADD29C,0.254000*%
%TD*%
%TA.AperFunction,Conductor*%
%ADD30C,0.200000*%
%TD*%
%TA.AperFunction,Conductor*%
%ADD31C,0.250000*%
%TD*%
%TA.AperFunction,Conductor*%
%ADD32C,1.016000*%
%TD*%
G04 APERTURE END LIST*
D10*
%TO.P,U1,1,GND*%
%TO.N,GND*%
X153252200Y-52853800D03*
D11*
%TO.P,U1,2,0_RX1_CRX2_CS1*%
%TO.N,MIDI_IN*%
X153252200Y-55393800D03*
%TO.P,U1,3,1_TX1_CTX2_MISO1*%
%TO.N,MIDI_OUT*%
X153252200Y-57933800D03*
%TO.P,U1,4,2_OUT2*%
%TO.N,SENS_XOUT_LEFT*%
X153252200Y-60473800D03*
%TO.P,U1,5,3_LRCLK2*%
%TO.N,SENS_XOUT_CENTER*%
X153252200Y-63013800D03*
%TO.P,U1,6,4_BCLK2*%
%TO.N,SENS_XOUT_RIGHT*%
X153252200Y-65553800D03*
%TO.P,U1,7,5_IN2*%
%TO.N,unconnected-(U1-Pad7)*%
X153252200Y-68093800D03*
%TO.P,U1,8,6_OUT1D*%
%TO.N,unconnected-(U1-Pad8)*%
X153252200Y-70633800D03*
%TO.P,U1,9,7_RX2_OUT1A*%
%TO.N,I2S_DIN*%
X153252200Y-73173800D03*
%TO.P,U1,10,8_TX2_IN1*%
%TO.N,I2S_DOUT*%
X153252200Y-75713800D03*
%TO.P,U1,11,9_OUT1C*%
%TO.N,TRELLIS_INT_PIN*%
X153252200Y-78253800D03*
%TO.P,U1,12,10_CS_MQSR*%
%TO.N,ROT_CLICK_SW*%
X153252200Y-80793800D03*
%TO.P,U1,13,11_MOSI_CTX1*%
%TO.N,ROT_CLICK_DT*%
X153252200Y-83333800D03*
%TO.P,U1,14,12_MISO_MQSL*%
%TO.N,ROT_CLICK_CLK*%
X153252200Y-85873800D03*
%TO.P,U1,15,3V3*%
%TO.N,+3V3*%
X153252200Y-88413800D03*
%TO.P,U1,16,24_A10_TX6_SCL2*%
%TO.N,unconnected-(U1-Pad16)*%
X153252200Y-90953800D03*
%TO.P,U1,17,25_A11_RX6_SDA2*%
%TO.N,unconnected-(U1-Pad17)*%
X153252200Y-93493800D03*
%TO.P,U1,18,26_A12_MOSI1*%
%TO.N,unconnected-(U1-Pad18)*%
X153252200Y-96033800D03*
%TO.P,U1,19,27_A13_SCK1*%
%TO.N,unconnected-(U1-Pad19)*%
X153252200Y-98573800D03*
%TO.P,U1,20,28_RX7*%
%TO.N,unconnected-(U1-Pad20)*%
X153252200Y-101113800D03*
%TO.P,U1,21,29_TX7*%
%TO.N,unconnected-(U1-Pad21)*%
X153252200Y-103653800D03*
%TO.P,U1,22,30_CRX3*%
%TO.N,unconnected-(U1-Pad22)*%
X153252200Y-106193800D03*
%TO.P,U1,23,31_CTX3*%
%TO.N,unconnected-(U1-Pad23)*%
X153252200Y-108733800D03*
%TO.P,U1,24,32_OUT1B*%
%TO.N,unconnected-(U1-Pad24)*%
X153252200Y-111273800D03*
%TO.P,U1,25,33_MCLK2*%
%TO.N,unconnected-(U1-Pad25)*%
X168492200Y-111273800D03*
%TO.P,U1,26,34_RX8*%
%TO.N,unconnected-(U1-Pad26)*%
X168492200Y-108733800D03*
%TO.P,U1,27,35_TX8*%
%TO.N,unconnected-(U1-Pad27)*%
X168492200Y-106193800D03*
%TO.P,U1,28,36_CS*%
%TO.N,unconnected-(U1-Pad28)*%
X168492200Y-103653800D03*
%TO.P,U1,29,37_CS*%
%TO.N,unconnected-(U1-Pad29)*%
X168492200Y-101113800D03*
%TO.P,U1,30,38_CS1_IN1*%
%TO.N,unconnected-(U1-Pad30)*%
X168492200Y-98573800D03*
%TO.P,U1,31,39_MISO1_OUT1A*%
%TO.N,unconnected-(U1-Pad31)*%
X168492200Y-96033800D03*
%TO.P,U1,32,40_A16*%
%TO.N,unconnected-(U1-Pad32)*%
X168492200Y-93493800D03*
%TO.P,U1,33,41_A17*%
%TO.N,unconnected-(U1-Pad33)*%
X168492200Y-90953800D03*
%TO.P,U1,34,GND*%
%TO.N,GND*%
X168492200Y-88413800D03*
%TO.P,U1,35,13_SCK_LED*%
%TO.N,unconnected-(U1-Pad35)*%
X168492200Y-85873800D03*
%TO.P,U1,36,14_A0_TX3_SPDIF_OUT*%
%TO.N,ESP8266_UART_RX*%
X168492200Y-83333800D03*
%TO.P,U1,37,15_A1_RX3_SPDIF_IN*%
%TO.N,ESP8266_UART_TX*%
X168492200Y-80793800D03*
%TO.P,U1,38,16_A2_RX4_SCL1*%
%TO.N,SENS_I2C_SCL*%
X168492200Y-78253800D03*
%TO.P,U1,39,17_A3_TX4_SDA1*%
%TO.N,SENS_I2C_SDA*%
X168492200Y-75713800D03*
%TO.P,U1,40,18_A4_SDA*%
%TO.N,I2C_SDA_3V3*%
X168492200Y-73173800D03*
%TO.P,U1,41,19_A5_SCL*%
%TO.N,I2C_SCL_3V3*%
X168492200Y-70633800D03*
%TO.P,U1,42,20_A6_TX5_LRCLK1*%
%TO.N,I2S_LRCLK*%
X168492200Y-68093800D03*
%TO.P,U1,43,21_A7_RX5_BCLK1*%
%TO.N,I2S_SCLK*%
X168492200Y-65553800D03*
%TO.P,U1,44,22_A8_CTX1*%
%TO.N,unconnected-(U1-Pad44)*%
X168492200Y-63013800D03*
%TO.P,U1,45,23_A9_CRX1_MCLK1*%
%TO.N,I2S_MCLK*%
X168492200Y-60473800D03*
%TO.P,U1,46,3V3*%
%TO.N,+3V3*%
X168492200Y-57933800D03*
%TO.P,U1,47,GND*%
%TO.N,GND*%
X168492200Y-55393800D03*
%TO.P,U1,48,VIN*%
%TO.N,V_USB*%
X168492200Y-52853800D03*
%TO.P,U1,49,VUSB*%
%TO.N,unconnected-(U1-Pad49)*%
X165952200Y-55393800D03*
%TO.P,U1,50,VBAT*%
%TO.N,unconnected-(U1-Pad50)*%
X155792200Y-98573800D03*
%TO.P,U1,51,3V3*%
%TO.N,+3V3*%
X158332200Y-98573800D03*
%TO.P,U1,52,GND*%
%TO.N,GND*%
X160872200Y-98573800D03*
%TO.P,U1,53,PROGRAM*%
%TO.N,unconnected-(U1-Pad53)*%
X163412200Y-98573800D03*
%TO.P,U1,54,ON_OFF*%
%TO.N,unconnected-(U1-Pad54)*%
X165952200Y-98573800D03*
D10*
%TO.P,U1,55,5V*%
%TO.N,USB_HOST_5V*%
X156303000Y-59153000D03*
D11*
%TO.P,U1,56,D-*%
%TO.N,USB_HOST_N*%
X156303000Y-61693000D03*
%TO.P,U1,57,D+*%
%TO.N,USB_HOST_P*%
X156303000Y-64233000D03*
%TO.P,U1,58,GND*%
%TO.N,GND*%
X156303000Y-66773000D03*
%TO.P,U1,59,GND*%
X156303000Y-69313000D03*
D12*
%TO.P,U1,60,R+*%
%TO.N,unconnected-(U1-Pad60)*%
X166053800Y-65823800D03*
D13*
%TO.P,U1,61,LED*%
%TO.N,unconnected-(U1-Pad61)*%
X164053800Y-65823800D03*
%TO.P,U1,62,T-*%
%TO.N,unconnected-(U1-Pad62)*%
X162053800Y-65823800D03*
%TO.P,U1,63,T+*%
%TO.N,unconnected-(U1-Pad63)*%
X162053800Y-67823800D03*
%TO.P,U1,64,GND*%
%TO.N,GND*%
X164053800Y-67823800D03*
%TO.P,U1,65,R-*%
%TO.N,unconnected-(U1-Pad65)*%
X166053800Y-67823800D03*
%TO.P,U1,66,D-*%
%TO.N,unconnected-(U1-Pad66)*%
X162142200Y-53583800D03*
%TO.P,U1,67,D+*%
%TO.N,unconnected-(U1-Pad67)*%
X159602200Y-53583800D03*
%TD*%
D14*
%TO.P,J4,*%
%TO.N,*%
X179000000Y-53376000D03*
X179000000Y-59376000D03*
%TD*%
D15*
%TO.P,J11,1,Pin_1*%
%TO.N,+3V3*%
X141952000Y-108048000D03*
D16*
%TO.P,J11,2,Pin_2*%
%TO.N,I2C_SCL_3V3*%
X139452000Y-108048000D03*
%TO.P,J11,3,Pin_3*%
%TO.N,I2C_SDA_3V3*%
X136952000Y-108048000D03*
%TO.P,J11,4,Pin_4*%
%TO.N,GND*%
X134452000Y-108048000D03*
%TD*%
D17*
%TO.P,J5,1,Pin_1*%
%TO.N,+3V3*%
X103000000Y-133000000D03*
D18*
%TO.P,J5,2,Pin_2*%
%TO.N,SENS_I2C_SCL*%
X103000000Y-130500000D03*
%TO.P,J5,3,Pin_3*%
%TO.N,SENS_I2C_SDA*%
X103000000Y-128000000D03*
%TO.P,J5,4,Pin_4*%
%TO.N,SENS_XOUT_LEFT*%
X103000000Y-125500000D03*
%TO.P,J5,5,Pin_5*%
%TO.N,GND*%
X103000000Y-123000000D03*
%TD*%
D15*
%TO.P,J9,1,Pin_1*%
%TO.N,+3V3*%
X169000000Y-147000000D03*
D16*
%TO.P,J9,2,Pin_2*%
%TO.N,SENS_I2C_SCL*%
X166500000Y-147000000D03*
%TO.P,J9,3,Pin_3*%
%TO.N,SENS_I2C_SDA*%
X164000000Y-147000000D03*
%TO.P,J9,4,Pin_4*%
%TO.N,SENS_XOUT_CENTER*%
X161500000Y-147000000D03*
%TO.P,J9,5,Pin_5*%
%TO.N,GND*%
X159000000Y-147000000D03*
%TD*%
D15*
%TO.P,J12,1,Pin_1*%
%TO.N,TRELLIS_INT_PIN*%
X143000000Y-121000000D03*
D16*
%TO.P,J12,2,Pin_2*%
%TO.N,+3V3*%
X140500000Y-121000000D03*
%TO.P,J12,3,Pin_3*%
%TO.N,GND*%
X138000000Y-121000000D03*
%TO.P,J12,4,Pin_4*%
%TO.N,I2C_SCL_3V3*%
X135500000Y-121000000D03*
%TO.P,J12,5,Pin_5*%
%TO.N,I2C_SDA_3V3*%
X133000000Y-121000000D03*
%TD*%
D19*
%TO.P,J2,*%
%TO.N,*%
X118030000Y-53535000D03*
X108030000Y-53535000D03*
D20*
%TO.P,J2,1*%
%TO.N,unconnected-(J2-Pad1)*%
X120530000Y-63535000D03*
%TO.P,J2,2*%
%TO.N,unconnected-(J2-Pad2)*%
X118030000Y-66035000D03*
%TO.P,J2,3*%
%TO.N,unconnected-(J2-Pad3)*%
X113030000Y-63535000D03*
%TO.P,J2,4*%
%TO.N,Net-(J2-Pad4)*%
X108030000Y-66035000D03*
%TO.P,J2,5*%
%TO.N,Net-(J2-Pad5)*%
X105530000Y-63535000D03*
%TD*%
D10*
%TO.P,J3,1,VBUS*%
%TO.N,USB_HOST_5V*%
X134000000Y-138253000D03*
D11*
%TO.P,J3,2,D-*%
%TO.N,USB_HOST_N*%
X136500000Y-138253000D03*
%TO.P,J3,3,D+*%
%TO.N,USB_HOST_P*%
X138500000Y-138253000D03*
%TO.P,J3,4,GND*%
%TO.N,GND*%
X141000000Y-138253000D03*
D21*
%TO.P,J3,5,Shield*%
X144070000Y-140963000D03*
X130930000Y-140963000D03*
%TD*%
D22*
%TO.P,J8,1,Pin_1*%
%TO.N,Net-(C10-Pad2)*%
X197000000Y-90000000D03*
D23*
%TO.P,J8,2,Pin_2*%
%TO.N,GND*%
X197000000Y-92500000D03*
%TD*%
D19*
%TO.P,J1,*%
%TO.N,*%
X133430000Y-53535000D03*
X143430000Y-53535000D03*
D20*
%TO.P,J1,1*%
%TO.N,unconnected-(J1-Pad1)*%
X145930000Y-63535000D03*
%TO.P,J1,2*%
%TO.N,unconnected-(J1-Pad2)*%
X143430000Y-66035000D03*
%TO.P,J1,3*%
%TO.N,unconnected-(J1-Pad3)*%
X138430000Y-63535000D03*
%TO.P,J1,4*%
%TO.N,Net-(J1-Pad4)*%
X133430000Y-66035000D03*
%TO.P,J1,5*%
%TO.N,Net-(D1-Pad2)*%
X130930000Y-63535000D03*
%TD*%
D24*
%TO.P,J7,1,Pin_1*%
%TO.N,+3V3*%
X196850000Y-123000000D03*
D18*
%TO.P,J7,2,Pin_2*%
%TO.N,SENS_I2C_SCL*%
X196850000Y-125500000D03*
%TO.P,J7,3,Pin_3*%
%TO.N,SENS_I2C_SDA*%
X196850000Y-128000000D03*
%TO.P,J7,4,Pin_4*%
%TO.N,SENS_XOUT_RIGHT*%
X196850000Y-130500000D03*
%TO.P,J7,5,Pin_5*%
%TO.N,GND*%
X196850000Y-133000000D03*
%TD*%
D19*
%TO.P,U6,1,TXD*%
%TO.N,ESP8266_UART_TX*%
X118711000Y-86204000D03*
%TO.P,U6,2,CH_PD*%
%TO.N,unconnected-(U6-Pad2)*%
X116171000Y-86204000D03*
%TO.P,U6,3,RST*%
%TO.N,unconnected-(U6-Pad3)*%
X113631000Y-86204000D03*
%TO.P,U6,4,VCC*%
%TO.N,+3V3*%
X111091000Y-86204000D03*
%TO.P,U6,5,RXD*%
%TO.N,ESP8266_UART_RX*%
X111091000Y-88744000D03*
%TO.P,U6,6,GPIO0*%
%TO.N,unconnected-(U6-Pad6)*%
X113631000Y-88744000D03*
%TO.P,U6,7,GPIO2*%
%TO.N,unconnected-(U6-Pad7)*%
X116171000Y-88744000D03*
D25*
%TO.P,U6,8,GND*%
%TO.N,GND*%
X118711000Y-88744000D03*
%TD*%
D14*
%TO.P,J6,*%
%TO.N,*%
X193000000Y-59468000D03*
X193000000Y-53468000D03*
%TD*%
D26*
%TO.P,,1*%
%TO.N,N/C*%
X105000000Y-75000000D03*
%TD*%
%TO.P,,1*%
%TO.N,N/C*%
X195000000Y-145000000D03*
%TD*%
%TO.P,,1*%
%TO.N,N/C*%
X195000000Y-75000000D03*
%TD*%
%TO.P,REF\u002A\u002A,1*%
%TO.N,N/C*%
X105000000Y-145000000D03*
%TD*%
D27*
%TO.P,J10,1,Pin_1*%
%TO.N,GND*%
X133300000Y-92800000D03*
D16*
%TO.P,J10,2,Pin_2*%
%TO.N,+3V3*%
X135800000Y-92800000D03*
%TO.P,J10,3,Pin_3*%
%TO.N,ROT_CLICK_SW*%
X138300000Y-92800000D03*
%TO.P,J10,4,Pin_4*%
%TO.N,ROT_CLICK_DT*%
X140800000Y-92800000D03*
%TO.P,J10,5,Pin_5*%
%TO.N,ROT_CLICK_CLK*%
X143300000Y-92800000D03*
%TD*%
D28*
%TO.N,GND*%
X147286000Y-74901000D03*
X182499000Y-52867000D03*
X193650000Y-67160000D03*
X185674000Y-71628000D03*
X185674000Y-70583000D03*
X186783000Y-70583000D03*
X180848000Y-69519800D03*
X147286000Y-78330000D03*
X187960000Y-71628000D03*
X141610000Y-82730000D03*
X147286000Y-81632000D03*
X184092200Y-80220200D03*
X184861200Y-91897200D03*
X197927000Y-67310000D03*
X188000000Y-70583000D03*
X142968000Y-72234000D03*
X185674000Y-72742000D03*
X186783000Y-72742000D03*
X197927000Y-70104000D03*
X187960000Y-72742000D03*
X186800000Y-71700000D03*
X175514000Y-52867000D03*
X188112400Y-65557400D03*
%TO.N,HP_L*%
X196342000Y-59690000D03*
X189615500Y-59558500D03*
%TO.N,HP_R*%
X196475000Y-55968000D03*
X189738000Y-56134000D03*
%TO.N,+3V3*%
X178172400Y-99412000D03*
X149190000Y-71160000D03*
X178969410Y-69215000D03*
X121700000Y-77375000D03*
X184112600Y-78320200D03*
X183760400Y-99412000D03*
X178477200Y-92858800D03*
X174616400Y-90064800D03*
X193630000Y-69650000D03*
%TO.N,I2C_SDA_3V3*%
X177012600Y-76606400D03*
%TO.N,I2C_SCL_3V3*%
X178765200Y-77012800D03*
%TO.N,SENS_I2C_SDA*%
X181610000Y-99412000D03*
%TO.N,SENS_I2C_SCL*%
X180340000Y-99412000D03*
%TO.N,SENS_XOUT_RIGHT*%
X138925000Y-130475000D03*
%TO.N,SENS_XOUT_CENTER*%
X137075000Y-131250000D03*
%TO.N,V_USB*%
X139793000Y-72488000D03*
%TO.N,MIC*%
X184327800Y-67259200D03*
X188036200Y-84963000D03*
%TO.N,MIC_BIAS*%
X184853800Y-90000000D03*
X182600600Y-67360800D03*
%TD*%
D29*
%TO.N,SENS_XOUT_RIGHT*%
X130225000Y-88645000D02*
X130225000Y-121775000D01*
%TO.N,SENS_I2C_SDA*%
X112892907Y-145030400D02*
X109848507Y-141986000D01*
X164000000Y-147000000D02*
X162030400Y-145030400D01*
X162030400Y-145030400D02*
X112892907Y-145030400D01*
%TO.N,SENS_I2C_SCL*%
X116285800Y-143785800D02*
X163285800Y-143785800D01*
X163285800Y-143785800D02*
X166500000Y-147000000D01*
X113035001Y-140535001D02*
X116285800Y-143785800D01*
D30*
%TO.N,USB_HOST_P*%
X137677000Y-136601716D02*
X137677000Y-137430000D01*
X158643214Y-115635502D02*
X137677000Y-136601716D01*
X159202921Y-110455586D02*
X158943214Y-110455586D01*
X158943214Y-109855586D02*
X159202921Y-109855586D01*
X158943214Y-108655586D02*
X159202921Y-108655586D01*
X159202921Y-108055586D02*
X158943214Y-108055586D01*
X158943214Y-107455586D02*
X159202921Y-107455586D01*
X158643214Y-101121153D02*
X158643214Y-107155586D01*
X158828367Y-100936000D02*
X158643214Y-101121153D01*
X137677000Y-137430000D02*
X138500000Y-138253000D01*
X158843000Y-100936000D02*
X158828367Y-100936000D01*
X159605000Y-97228400D02*
X159605000Y-100174000D01*
X158461200Y-96084600D02*
X159605000Y-97228400D01*
X158461200Y-66391200D02*
X158461200Y-96084600D01*
X156303000Y-64233000D02*
X158461200Y-66391200D01*
X158643214Y-110755586D02*
G75*
G02*
X158943214Y-110455586I300000J0D01*
G01*
X159202921Y-110455586D02*
G75*
G03*
X159502921Y-110155586I0J300000D01*
G01*
X159502921Y-110155586D02*
G75*
G03*
X159202921Y-109855586I-300000J0D01*
G01*
X159605000Y-100174000D02*
X158843000Y-100936000D01*
X158643214Y-110755586D02*
X158643214Y-115635502D01*
X159502921Y-108955586D02*
G75*
G03*
X159202921Y-108655586I-300000J0D01*
G01*
X158943214Y-109855586D02*
G75*
G02*
X158643214Y-109555586I0J300000D01*
G01*
X158943214Y-108655586D02*
G75*
G02*
X158643214Y-108355586I0J300000D01*
G01*
X159202921Y-109255586D02*
G75*
G03*
X159502921Y-108955586I0J300000D01*
G01*
X158643214Y-108355586D02*
G75*
G02*
X158943214Y-108055586I300000J0D01*
G01*
X159202921Y-109255586D02*
X158943214Y-109255586D01*
X159202921Y-108055586D02*
G75*
G03*
X159502921Y-107755586I0J300000D01*
G01*
X158643214Y-109555586D02*
G75*
G02*
X158943214Y-109255586I300000J0D01*
G01*
X159502921Y-107755586D02*
G75*
G03*
X159202921Y-107455586I-300000J0D01*
G01*
X158943214Y-107455586D02*
G75*
G02*
X158643214Y-107155586I0J300000D01*
G01*
%TO.N,USB_HOST_N*%
X154855200Y-63140800D02*
X156303000Y-61693000D01*
X158106400Y-73402400D02*
X154855200Y-70151200D01*
X158107200Y-73402400D02*
X158106400Y-73402400D01*
X158107200Y-96084600D02*
X158107200Y-73402400D01*
X158106400Y-96084600D02*
X158107200Y-96084600D01*
X157065000Y-97126000D02*
X158106400Y-96084600D01*
X158289214Y-101117707D02*
X158106400Y-100934893D01*
X157065000Y-99869200D02*
X157065000Y-97126000D01*
X158289214Y-115488870D02*
X158289214Y-101117707D01*
X158106400Y-100910600D02*
X157065000Y-99869200D01*
X137323000Y-136455084D02*
X158289214Y-115488870D01*
X158106400Y-100934893D02*
X158106400Y-100910600D01*
X154855200Y-70151200D02*
X154855200Y-63140800D01*
X137323000Y-137430000D02*
X137323000Y-136455084D01*
X136500000Y-138253000D02*
X137323000Y-137430000D01*
D31*
%TO.N,ROT_CLICK_SW*%
X150370000Y-80730000D02*
X138300000Y-92800000D01*
X153380000Y-80730000D02*
X150370000Y-80730000D01*
%TO.N,ROT_CLICK_DT*%
X150330000Y-83270000D02*
X140800000Y-92800000D01*
X153380000Y-83270000D02*
X150330000Y-83270000D01*
%TO.N,ROT_CLICK_CLK*%
X153380000Y-85810000D02*
X150290000Y-85810000D01*
X150290000Y-85810000D02*
X143300000Y-92800000D01*
%TO.N,HP_L*%
X195326000Y-60706000D02*
X190246000Y-60706000D01*
X196342000Y-59690000D02*
X195326000Y-60706000D01*
X189615500Y-60075500D02*
X189615500Y-59558500D01*
X190246000Y-60706000D02*
X189615500Y-60075500D01*
%TO.N,HP_R*%
X189904000Y-55968000D02*
X189738000Y-56134000D01*
X196475000Y-55968000D02*
X189904000Y-55968000D01*
%TO.N,I2C_SDA_3V3*%
X177012600Y-76606400D02*
X173507400Y-73101200D01*
X173507400Y-73101200D02*
X168628800Y-73101200D01*
X168628800Y-73101200D02*
X168620000Y-73110000D01*
%TO.N,I2C_SCL_3V3*%
X172347800Y-70570000D02*
X177393600Y-75615800D01*
X177393600Y-75615800D02*
X177393600Y-75641200D01*
X168620000Y-70570000D02*
X172347800Y-70570000D01*
X177393600Y-75641200D02*
X178765200Y-77012800D01*
%TO.N,SENS_XOUT_LEFT*%
X128300000Y-85490000D02*
X128300000Y-100200000D01*
X128300000Y-100200000D02*
X103000000Y-125500000D01*
X153380000Y-60410000D02*
X128300000Y-85490000D01*
%TO.N,SENS_I2C_SDA*%
X171662000Y-75650000D02*
X181610000Y-85598000D01*
X181610000Y-100838000D02*
X199136000Y-118364000D01*
X100838000Y-130162000D02*
X103000000Y-128000000D01*
X165750000Y-148750000D02*
X176100000Y-148750000D01*
X199136000Y-125714000D02*
X196850000Y-128000000D01*
X164000000Y-147000000D02*
X165750000Y-148750000D01*
X109848507Y-141986000D02*
X100838000Y-132975493D01*
X176100000Y-148750000D02*
X196850000Y-128000000D01*
X199136000Y-118364000D02*
X199136000Y-125714000D01*
X181610000Y-99530000D02*
X181610000Y-100838000D01*
X100838000Y-132975493D02*
X100838000Y-130162000D01*
X168620000Y-75650000D02*
X171662000Y-75650000D01*
X181610000Y-85598000D02*
X181610000Y-99530000D01*
%TO.N,SENS_I2C_SCL*%
X196850000Y-125500000D02*
X195858000Y-125500000D01*
X166500000Y-147000000D02*
X180750000Y-132750000D01*
X195858000Y-125500000D02*
X193548000Y-123190000D01*
X193548000Y-123190000D02*
X193548000Y-114808000D01*
X193548000Y-114808000D02*
X180340000Y-101600000D01*
X180340000Y-86614000D02*
X171916000Y-78190000D01*
X180340000Y-99620000D02*
X180340000Y-86614000D01*
X180340000Y-101600000D02*
X180340000Y-99620000D01*
X180750000Y-132750000D02*
X189600000Y-132750000D01*
X171916000Y-78190000D02*
X168620000Y-78190000D01*
X103000000Y-130500000D02*
X113035001Y-140535001D01*
X189600000Y-132750000D02*
X196850000Y-125500000D01*
%TO.N,SENS_XOUT_RIGHT*%
X153380000Y-65490000D02*
X130225000Y-88645000D01*
X130225000Y-121775000D02*
X138925000Y-130475000D01*
%TO.N,SENS_XOUT_CENTER*%
X129225000Y-123400000D02*
X137075000Y-131250000D01*
X153380000Y-62950000D02*
X129225000Y-87105000D01*
X129225000Y-87105000D02*
X129225000Y-123400000D01*
D32*
%TO.N,V_USB*%
X140936000Y-71345000D02*
X139793000Y-72488000D01*
X149826000Y-51025000D02*
X140936000Y-59915000D01*
X166855000Y-51025000D02*
X149826000Y-51025000D01*
X140936000Y-59915000D02*
X140936000Y-71345000D01*
X168620000Y-52790000D02*
X166855000Y-51025000D01*
D31*
%TO.N,MIC*%
X183367199Y-68219801D02*
X184327800Y-67259200D01*
X188036200Y-84963000D02*
X187470515Y-84963000D01*
X187470515Y-84963000D02*
X183435358Y-80927842D01*
X183367199Y-68219801D02*
X183367199Y-80859683D01*
X183367199Y-80859683D02*
X183435358Y-80927842D01*
X183435358Y-80927842D02*
X183367199Y-80859684D01*
%TO.N,MIC_BIAS*%
X182600600Y-82448400D02*
X182626000Y-82473800D01*
X184853800Y-84701600D02*
X182626000Y-82473800D01*
X182600600Y-67360800D02*
X182600600Y-82448400D01*
X184853800Y-90000000D02*
X184853800Y-84701600D01*
D29*
%TO.N,TRELLIS_INT_PIN*%
X154525000Y-115731000D02*
X154525000Y-79526600D01*
D31*
X143000000Y-121000000D02*
X149256000Y-121000000D01*
D29*
X154525000Y-79526600D02*
X153252200Y-78253800D01*
X149256000Y-121000000D02*
X154525000Y-115731000D01*
%TD*%
M02*
