%TF.GenerationSoftware,KiCad,Pcbnew,(6.0.1)*%
%TF.CreationDate,2022-04-22T15:57:16+02:00*%
%TF.ProjectId,BuitPCB,42756974-5043-4422-9e6b-696361645f70,rev?*%
%TF.SameCoordinates,Original*%
%TF.FileFunction,Copper,L1,Top*%
%TF.FilePolarity,Positive*%
%FSLAX46Y46*%
G04 Gerber Fmt 4.6, Leading zero omitted, Abs format (unit mm)*
G04 Created by KiCad (PCBNEW (6.0.1)) date 2022-04-22 15:57:16*
%MOMM*%
%LPD*%
G01*
G04 APERTURE LIST*
G04 Aperture macros list*
%AMRoundRect*
0 Rectangle with rounded corners*
0 $1 Rounding radius*
0 $2 $3 $4 $5 $6 $7 $8 $9 X,Y pos of 4 corners*
0 Add a 4 corners polygon primitive as box body*
4,1,4,$2,$3,$4,$5,$6,$7,$8,$9,$2,$3,0*
0 Add four circle primitives for the rounded corners*
1,1,$1+$1,$2,$3*
1,1,$1+$1,$4,$5*
1,1,$1+$1,$6,$7*
1,1,$1+$1,$8,$9*
0 Add four rect primitives between the rounded corners*
20,1,$1+$1,$2,$3,$4,$5,0*
20,1,$1+$1,$4,$5,$6,$7,0*
20,1,$1+$1,$6,$7,$8,$9,0*
20,1,$1+$1,$8,$9,$2,$3,0*%
G04 Aperture macros list end*
%TA.AperFunction,ComponentPad*%
%ADD10R,1.600000X1.600000*%
%TD*%
%TA.AperFunction,ComponentPad*%
%ADD11C,1.600000*%
%TD*%
%TA.AperFunction,ComponentPad*%
%ADD12R,1.300000X1.300000*%
%TD*%
%TA.AperFunction,ComponentPad*%
%ADD13C,1.300000*%
%TD*%
%TA.AperFunction,SMDPad,CuDef*%
%ADD14RoundRect,0.250000X-0.250000X-0.475000X0.250000X-0.475000X0.250000X0.475000X-0.250000X0.475000X0*%
%TD*%
%TA.AperFunction,SMDPad,CuDef*%
%ADD15RoundRect,0.243750X-0.456250X0.243750X-0.456250X-0.243750X0.456250X-0.243750X0.456250X0.243750X0*%
%TD*%
%TA.AperFunction,ComponentPad*%
%ADD16C,1.700000*%
%TD*%
%TA.AperFunction,SMDPad,CuDef*%
%ADD17R,3.150000X2.000000*%
%TD*%
%TA.AperFunction,ComponentPad*%
%ADD18RoundRect,0.250000X0.600000X0.725000X-0.600000X0.725000X-0.600000X-0.725000X0.600000X-0.725000X0*%
%TD*%
%TA.AperFunction,ComponentPad*%
%ADD19O,1.700000X1.950000*%
%TD*%
%TA.AperFunction,SMDPad,CuDef*%
%ADD20RoundRect,0.250000X0.450000X-0.262500X0.450000X0.262500X-0.450000X0.262500X-0.450000X-0.262500X0*%
%TD*%
%TA.AperFunction,SMDPad,CuDef*%
%ADD21RoundRect,0.250000X0.262500X0.450000X-0.262500X0.450000X-0.262500X-0.450000X0.262500X-0.450000X0*%
%TD*%
%TA.AperFunction,SMDPad,CuDef*%
%ADD22R,3.100000X1.600000*%
%TD*%
%TA.AperFunction,SMDPad,CuDef*%
%ADD23RoundRect,0.062500X0.337500X0.062500X-0.337500X0.062500X-0.337500X-0.062500X0.337500X-0.062500X0*%
%TD*%
%TA.AperFunction,SMDPad,CuDef*%
%ADD24RoundRect,0.062500X0.062500X0.337500X-0.062500X0.337500X-0.062500X-0.337500X0.062500X-0.337500X0*%
%TD*%
%TA.AperFunction,SMDPad,CuDef*%
%ADD25R,3.600000X3.600000*%
%TD*%
%TA.AperFunction,ComponentPad*%
%ADD26RoundRect,0.250000X0.725000X-0.600000X0.725000X0.600000X-0.725000X0.600000X-0.725000X-0.600000X0*%
%TD*%
%TA.AperFunction,ComponentPad*%
%ADD27O,1.950000X1.700000*%
%TD*%
%TA.AperFunction,ComponentPad*%
%ADD28C,1.524000*%
%TD*%
%TA.AperFunction,ComponentPad*%
%ADD29C,2.540000*%
%TD*%
%TA.AperFunction,ComponentPad*%
%ADD30C,3.000000*%
%TD*%
%TA.AperFunction,SMDPad,CuDef*%
%ADD31R,0.900000X0.800000*%
%TD*%
%TA.AperFunction,SMDPad,CuDef*%
%ADD32RoundRect,0.250000X0.475000X-0.250000X0.475000X0.250000X-0.475000X0.250000X-0.475000X-0.250000X0*%
%TD*%
%TA.AperFunction,SMDPad,CuDef*%
%ADD33RoundRect,0.250000X-0.475000X0.250000X-0.475000X-0.250000X0.475000X-0.250000X0.475000X0.250000X0*%
%TD*%
%TA.AperFunction,ComponentPad*%
%ADD34RoundRect,0.250000X-0.750000X0.600000X-0.750000X-0.600000X0.750000X-0.600000X0.750000X0.600000X0*%
%TD*%
%TA.AperFunction,ComponentPad*%
%ADD35O,2.000000X1.700000*%
%TD*%
%TA.AperFunction,SMDPad,CuDef*%
%ADD36RoundRect,0.250000X-0.262500X-0.450000X0.262500X-0.450000X0.262500X0.450000X-0.262500X0.450000X0*%
%TD*%
%TA.AperFunction,ComponentPad*%
%ADD37RoundRect,0.250000X-0.725000X0.600000X-0.725000X-0.600000X0.725000X-0.600000X0.725000X0.600000X0*%
%TD*%
%TA.AperFunction,ComponentPad*%
%ADD38R,1.524000X1.524000*%
%TD*%
%TA.AperFunction,SMDPad,CuDef*%
%ADD39RoundRect,0.250000X0.250000X0.475000X-0.250000X0.475000X-0.250000X-0.475000X0.250000X-0.475000X0*%
%TD*%
%TA.AperFunction,ComponentPad*%
%ADD40C,4.000000*%
%TD*%
%TA.AperFunction,ComponentPad*%
%ADD41RoundRect,0.250000X-0.600000X-0.725000X0.600000X-0.725000X0.600000X0.725000X-0.600000X0.725000X0*%
%TD*%
%TA.AperFunction,ViaPad*%
%ADD42C,0.800000*%
%TD*%
%TA.AperFunction,Conductor*%
%ADD43C,0.254000*%
%TD*%
%TA.AperFunction,Conductor*%
%ADD44C,0.250000*%
%TD*%
%TA.AperFunction,Conductor*%
%ADD45C,1.016000*%
%TD*%
%TA.AperFunction,Conductor*%
%ADD46C,0.200000*%
%TD*%
G04 APERTURE END LIST*
D10*
%TO.P,U1,1,GND*%
%TO.N,GND*%
X153252200Y-52853800D03*
D11*
%TO.P,U1,2,0_RX1_CRX2_CS1*%
%TO.N,MIDI_IN*%
X153252200Y-55393800D03*
%TO.P,U1,3,1_TX1_CTX2_MISO1*%
%TO.N,MIDI_OUT*%
X153252200Y-57933800D03*
%TO.P,U1,4,2_OUT2*%
%TO.N,SENS_XOUT_LEFT*%
X153252200Y-60473800D03*
%TO.P,U1,5,3_LRCLK2*%
%TO.N,SENS_XOUT_CENTER*%
X153252200Y-63013800D03*
%TO.P,U1,6,4_BCLK2*%
%TO.N,SENS_XOUT_RIGHT*%
X153252200Y-65553800D03*
%TO.P,U1,7,5_IN2*%
%TO.N,unconnected-(U1-Pad7)*%
X153252200Y-68093800D03*
%TO.P,U1,8,6_OUT1D*%
%TO.N,unconnected-(U1-Pad8)*%
X153252200Y-70633800D03*
%TO.P,U1,9,7_RX2_OUT1A*%
%TO.N,I2S_DIN*%
X153252200Y-73173800D03*
%TO.P,U1,10,8_TX2_IN1*%
%TO.N,I2S_DOUT*%
X153252200Y-75713800D03*
%TO.P,U1,11,9_OUT1C*%
%TO.N,TRELLIS_INT_PIN*%
X153252200Y-78253800D03*
%TO.P,U1,12,10_CS_MQSR*%
%TO.N,ROT_CLICK_SW*%
X153252200Y-80793800D03*
%TO.P,U1,13,11_MOSI_CTX1*%
%TO.N,ROT_CLICK_DT*%
X153252200Y-83333800D03*
%TO.P,U1,14,12_MISO_MQSL*%
%TO.N,ROT_CLICK_CLK*%
X153252200Y-85873800D03*
%TO.P,U1,15,3V3*%
%TO.N,+3V3*%
X153252200Y-88413800D03*
%TO.P,U1,16,24_A10_TX6_SCL2*%
%TO.N,unconnected-(U1-Pad16)*%
X153252200Y-90953800D03*
%TO.P,U1,17,25_A11_RX6_SDA2*%
%TO.N,unconnected-(U1-Pad17)*%
X153252200Y-93493800D03*
%TO.P,U1,18,26_A12_MOSI1*%
%TO.N,unconnected-(U1-Pad18)*%
X153252200Y-96033800D03*
%TO.P,U1,19,27_A13_SCK1*%
%TO.N,unconnected-(U1-Pad19)*%
X153252200Y-98573800D03*
%TO.P,U1,20,28_RX7*%
%TO.N,unconnected-(U1-Pad20)*%
X153252200Y-101113800D03*
%TO.P,U1,21,29_TX7*%
%TO.N,unconnected-(U1-Pad21)*%
X153252200Y-103653800D03*
%TO.P,U1,22,30_CRX3*%
%TO.N,unconnected-(U1-Pad22)*%
X153252200Y-106193800D03*
%TO.P,U1,23,31_CTX3*%
%TO.N,unconnected-(U1-Pad23)*%
X153252200Y-108733800D03*
%TO.P,U1,24,32_OUT1B*%
%TO.N,unconnected-(U1-Pad24)*%
X153252200Y-111273800D03*
%TO.P,U1,25,33_MCLK2*%
%TO.N,unconnected-(U1-Pad25)*%
X168492200Y-111273800D03*
%TO.P,U1,26,34_RX8*%
%TO.N,unconnected-(U1-Pad26)*%
X168492200Y-108733800D03*
%TO.P,U1,27,35_TX8*%
%TO.N,unconnected-(U1-Pad27)*%
X168492200Y-106193800D03*
%TO.P,U1,28,36_CS*%
%TO.N,unconnected-(U1-Pad28)*%
X168492200Y-103653800D03*
%TO.P,U1,29,37_CS*%
%TO.N,unconnected-(U1-Pad29)*%
X168492200Y-101113800D03*
%TO.P,U1,30,38_CS1_IN1*%
%TO.N,unconnected-(U1-Pad30)*%
X168492200Y-98573800D03*
%TO.P,U1,31,39_MISO1_OUT1A*%
%TO.N,unconnected-(U1-Pad31)*%
X168492200Y-96033800D03*
%TO.P,U1,32,40_A16*%
%TO.N,unconnected-(U1-Pad32)*%
X168492200Y-93493800D03*
%TO.P,U1,33,41_A17*%
%TO.N,unconnected-(U1-Pad33)*%
X168492200Y-90953800D03*
%TO.P,U1,34,GND*%
%TO.N,GND*%
X168492200Y-88413800D03*
%TO.P,U1,35,13_SCK_LED*%
%TO.N,unconnected-(U1-Pad35)*%
X168492200Y-85873800D03*
%TO.P,U1,36,14_A0_TX3_SPDIF_OUT*%
%TO.N,ESP8266_UART_RX*%
X168492200Y-83333800D03*
%TO.P,U1,37,15_A1_RX3_SPDIF_IN*%
%TO.N,ESP8266_UART_TX*%
X168492200Y-80793800D03*
%TO.P,U1,38,16_A2_RX4_SCL1*%
%TO.N,SENS_I2C_SCL*%
X168492200Y-78253800D03*
%TO.P,U1,39,17_A3_TX4_SDA1*%
%TO.N,SENS_I2C_SDA*%
X168492200Y-75713800D03*
%TO.P,U1,40,18_A4_SDA*%
%TO.N,I2C_SDA_3V3*%
X168492200Y-73173800D03*
%TO.P,U1,41,19_A5_SCL*%
%TO.N,I2C_SCL_3V3*%
X168492200Y-70633800D03*
%TO.P,U1,42,20_A6_TX5_LRCLK1*%
%TO.N,I2S_LRCLK*%
X168492200Y-68093800D03*
%TO.P,U1,43,21_A7_RX5_BCLK1*%
%TO.N,I2S_SCLK*%
X168492200Y-65553800D03*
%TO.P,U1,44,22_A8_CTX1*%
%TO.N,unconnected-(U1-Pad44)*%
X168492200Y-63013800D03*
%TO.P,U1,45,23_A9_CRX1_MCLK1*%
%TO.N,I2S_MCLK*%
X168492200Y-60473800D03*
%TO.P,U1,46,3V3*%
%TO.N,+3V3*%
X168492200Y-57933800D03*
%TO.P,U1,47,GND*%
%TO.N,GND*%
X168492200Y-55393800D03*
%TO.P,U1,48,VIN*%
%TO.N,V_USB*%
X168492200Y-52853800D03*
%TO.P,U1,49,VUSB*%
%TO.N,unconnected-(U1-Pad49)*%
X165952200Y-55393800D03*
%TO.P,U1,50,VBAT*%
%TO.N,unconnected-(U1-Pad50)*%
X155792200Y-98573800D03*
%TO.P,U1,51,3V3*%
%TO.N,+3V3*%
X158332200Y-98573800D03*
%TO.P,U1,52,GND*%
%TO.N,GND*%
X160872200Y-98573800D03*
%TO.P,U1,53,PROGRAM*%
%TO.N,unconnected-(U1-Pad53)*%
X163412200Y-98573800D03*
%TO.P,U1,54,ON_OFF*%
%TO.N,unconnected-(U1-Pad54)*%
X165952200Y-98573800D03*
D10*
%TO.P,U1,55,5V*%
%TO.N,USB_HOST_5V*%
X156303000Y-59153000D03*
D11*
%TO.P,U1,56,D-*%
%TO.N,USB_HOST_N*%
X156303000Y-61693000D03*
%TO.P,U1,57,D+*%
%TO.N,USB_HOST_P*%
X156303000Y-64233000D03*
%TO.P,U1,58,GND*%
%TO.N,GND*%
X156303000Y-66773000D03*
%TO.P,U1,59,GND*%
X156303000Y-69313000D03*
D12*
%TO.P,U1,60,R+*%
%TO.N,unconnected-(U1-Pad60)*%
X166053800Y-65823800D03*
D13*
%TO.P,U1,61,LED*%
%TO.N,unconnected-(U1-Pad61)*%
X164053800Y-65823800D03*
%TO.P,U1,62,T-*%
%TO.N,unconnected-(U1-Pad62)*%
X162053800Y-65823800D03*
%TO.P,U1,63,T+*%
%TO.N,unconnected-(U1-Pad63)*%
X162053800Y-67823800D03*
%TO.P,U1,64,GND*%
%TO.N,GND*%
X164053800Y-67823800D03*
%TO.P,U1,65,R-*%
%TO.N,unconnected-(U1-Pad65)*%
X166053800Y-67823800D03*
%TO.P,U1,66,D-*%
%TO.N,unconnected-(U1-Pad66)*%
X162142200Y-53583800D03*
%TO.P,U1,67,D+*%
%TO.N,unconnected-(U1-Pad67)*%
X159602200Y-53583800D03*
%TD*%
D14*
%TO.P,C1,1*%
%TO.N,V_USB*%
X141637000Y-72234000D03*
%TO.P,C1,2*%
%TO.N,GND*%
X143537000Y-72234000D03*
%TD*%
%TO.P,C2,1*%
%TO.N,VDDA*%
X195961000Y-70104000D03*
%TO.P,C2,2*%
%TO.N,GND*%
X197861000Y-70104000D03*
%TD*%
%TO.P,C3,1*%
%TO.N,VDDA*%
X195961000Y-67310000D03*
%TO.P,C3,2*%
%TO.N,GND*%
X197861000Y-67310000D03*
%TD*%
D15*
%TO.P,D1,1,K*%
%TO.N,Net-(D1-Pad1)*%
X128270000Y-78564500D03*
%TO.P,D1,2,A*%
%TO.N,Net-(D1-Pad2)*%
X128270000Y-80439500D03*
%TD*%
D16*
%TO.P,J4,*%
%TO.N,*%
X179000000Y-53376000D03*
X179000000Y-59376000D03*
D17*
%TO.P,J4,R*%
%TO.N,LINE_IN_R*%
X182475000Y-55876000D03*
X175525000Y-55876000D03*
%TO.P,J4,S*%
%TO.N,GND*%
X182475000Y-52676000D03*
X175525000Y-52676000D03*
%TO.P,J4,T*%
%TO.N,LINE_IN_L*%
X175525000Y-59376000D03*
X182475000Y-59376000D03*
%TD*%
D18*
%TO.P,J11,1,Pin_1*%
%TO.N,+3V3*%
X141952000Y-108048000D03*
D19*
%TO.P,J11,2,Pin_2*%
%TO.N,I2C_SCL_3V3*%
X139452000Y-108048000D03*
%TO.P,J11,3,Pin_3*%
%TO.N,I2C_SDA_3V3*%
X136952000Y-108048000D03*
%TO.P,J11,4,Pin_4*%
%TO.N,GND*%
X134452000Y-108048000D03*
%TD*%
D20*
%TO.P,R1,1*%
%TO.N,Net-(D1-Pad1)*%
X128270000Y-75334500D03*
%TO.P,R1,2*%
%TO.N,Net-(J1-Pad4)*%
X128270000Y-73509500D03*
%TD*%
D21*
%TO.P,R3,1*%
%TO.N,MIDI_OUT*%
X121562500Y-72390000D03*
%TO.P,R3,2*%
%TO.N,Net-(J2-Pad5)*%
X119737500Y-72390000D03*
%TD*%
D22*
%TO.P,U2,1,NC*%
%TO.N,unconnected-(U2-Pad1)*%
X132715000Y-74930000D03*
%TO.P,U2,2,C1*%
%TO.N,Net-(D1-Pad1)*%
X132715000Y-77470000D03*
%TO.P,U2,3,C2*%
%TO.N,Net-(D1-Pad2)*%
X132715000Y-80010000D03*
%TO.P,U2,4,NC*%
%TO.N,unconnected-(U2-Pad4)*%
X132715000Y-82550000D03*
%TO.P,U2,5,GND*%
%TO.N,GND*%
X141605000Y-82550000D03*
%TO.P,U2,6,VO2*%
%TO.N,MIDI_IN*%
X141605000Y-80010000D03*
%TO.P,U2,7,VO1*%
%TO.N,unconnected-(U2-Pad7)*%
X141605000Y-77470000D03*
%TO.P,U2,8,VCC*%
%TO.N,V_USB*%
X141605000Y-74930000D03*
%TD*%
D23*
%TO.P,U4,1,GND*%
%TO.N,GND*%
X189250000Y-73450000D03*
%TO.P,U4,2,HP_R*%
%TO.N,HP_R*%
X189250000Y-72950000D03*
%TO.P,U4,3,GND*%
%TO.N,GND*%
X189250000Y-72450000D03*
%TO.P,U4,4,HP_VGND*%
%TO.N,HP_GND*%
X189250000Y-71950000D03*
%TO.P,U4,5,VDDA*%
%TO.N,VDDA*%
X189250000Y-71450000D03*
%TO.P,U4,6,HP_L*%
%TO.N,HP_L*%
X189250000Y-70950000D03*
%TO.P,U4,7,AGND*%
%TO.N,GND*%
X189250000Y-70450000D03*
%TO.P,U4,8,NC*%
%TO.N,unconnected-(U4-Pad8)*%
X189250000Y-69950000D03*
D24*
%TO.P,U4,9,NC*%
%TO.N,unconnected-(U4-Pad9)*%
X188550000Y-69250000D03*
%TO.P,U4,10,VAG*%
%TO.N,Net-(C8-Pad2)*%
X188050000Y-69250000D03*
%TO.P,U4,11,LINEOUT_R*%
%TO.N,LINE_OUT_R*%
X187550000Y-69250000D03*
%TO.P,U4,12,LINEOUT_L*%
%TO.N,LINE_OUT_L*%
X187050000Y-69250000D03*
%TO.P,U4,13,LINEIN_R*%
%TO.N,LINE_IN_R*%
X186550000Y-69250000D03*
%TO.P,U4,14,LINEIN_L*%
%TO.N,LINE_IN_L*%
X186050000Y-69250000D03*
%TO.P,U4,15,MIC*%
%TO.N,MIC*%
X185550000Y-69250000D03*
%TO.P,U4,16,MIC_BIAS*%
%TO.N,MIC_BIAS*%
X185050000Y-69250000D03*
D23*
%TO.P,U4,17,NC*%
%TO.N,unconnected-(U4-Pad17)*%
X184350000Y-69950000D03*
%TO.P,U4,18,CPFILT*%
%TO.N,Net-(C9-Pad2)*%
X184350000Y-70450000D03*
%TO.P,U4,19,NC*%
%TO.N,unconnected-(U4-Pad19)*%
X184350000Y-70950000D03*
%TO.P,U4,20,VDDIO*%
%TO.N,+3V3*%
X184350000Y-71450000D03*
%TO.P,U4,21,SYS_MCLK*%
%TO.N,I2S_MCLK*%
X184350000Y-71950000D03*
%TO.P,U4,22,NC*%
%TO.N,unconnected-(U4-Pad22)*%
X184350000Y-72450000D03*
%TO.P,U4,23,I2S_LRCLK*%
%TO.N,I2S_LRCLK*%
X184350000Y-72950000D03*
%TO.P,U4,24,I2S_SCLK*%
%TO.N,I2S_SCLK*%
X184350000Y-73450000D03*
D24*
%TO.P,U4,25,I2S_DOUT*%
%TO.N,I2S_DOUT*%
X185050000Y-74150000D03*
%TO.P,U4,26,I2S_DIN*%
%TO.N,I2S_DIN*%
X185550000Y-74150000D03*
%TO.P,U4,27,CTRL_DATA*%
%TO.N,I2C_SDA_3V3*%
X186050000Y-74150000D03*
%TO.P,U4,28,NC*%
%TO.N,unconnected-(U4-Pad28)*%
X186550000Y-74150000D03*
%TO.P,U4,29,CTRL_CLK*%
%TO.N,I2C_SCL_3V3*%
X187050000Y-74150000D03*
%TO.P,U4,30,VDDD*%
%TO.N,+3V3*%
X187550000Y-74150000D03*
%TO.P,U4,31,CTRL_ADR0_CS*%
%TO.N,GND*%
X188050000Y-74150000D03*
%TO.P,U4,32,CTRL_MODE*%
X188550000Y-74150000D03*
D25*
%TO.P,U4,33,GND*%
X186800000Y-71700000D03*
%TD*%
D26*
%TO.P,J5,1,Pin_1*%
%TO.N,+3V3*%
X103000000Y-133000000D03*
D27*
%TO.P,J5,2,Pin_2*%
%TO.N,SENS_I2C_SCL*%
X103000000Y-130500000D03*
%TO.P,J5,3,Pin_3*%
%TO.N,SENS_I2C_SDA*%
X103000000Y-128000000D03*
%TO.P,J5,4,Pin_4*%
%TO.N,SENS_XOUT_LEFT*%
X103000000Y-125500000D03*
%TO.P,J5,5,Pin_5*%
%TO.N,GND*%
X103000000Y-123000000D03*
%TD*%
D18*
%TO.P,J9,1,Pin_1*%
%TO.N,+3V3*%
X169000000Y-147000000D03*
D19*
%TO.P,J9,2,Pin_2*%
%TO.N,SENS_I2C_SCL*%
X166500000Y-147000000D03*
%TO.P,J9,3,Pin_3*%
%TO.N,SENS_I2C_SDA*%
X164000000Y-147000000D03*
%TO.P,J9,4,Pin_4*%
%TO.N,SENS_XOUT_CENTER*%
X161500000Y-147000000D03*
%TO.P,J9,5,Pin_5*%
%TO.N,GND*%
X159000000Y-147000000D03*
%TD*%
D18*
%TO.P,J12,1,Pin_1*%
%TO.N,TRELLIS_INT_PIN*%
X143000000Y-121000000D03*
D19*
%TO.P,J12,2,Pin_2*%
%TO.N,+3V3*%
X140500000Y-121000000D03*
%TO.P,J12,3,Pin_3*%
%TO.N,GND*%
X138000000Y-121000000D03*
%TO.P,J12,4,Pin_4*%
%TO.N,I2C_SCL_3V3*%
X135500000Y-121000000D03*
%TO.P,J12,5,Pin_5*%
%TO.N,I2C_SDA_3V3*%
X133000000Y-121000000D03*
%TD*%
D28*
%TO.P,J2,*%
%TO.N,*%
X118030000Y-53535000D03*
X108030000Y-53535000D03*
D29*
%TO.P,J2,1*%
%TO.N,unconnected-(J2-Pad1)*%
X120530000Y-63535000D03*
%TO.P,J2,2*%
%TO.N,unconnected-(J2-Pad2)*%
X118030000Y-66035000D03*
%TO.P,J2,3*%
%TO.N,unconnected-(J2-Pad3)*%
X113030000Y-63535000D03*
%TO.P,J2,4*%
%TO.N,Net-(J2-Pad4)*%
X108030000Y-66035000D03*
%TO.P,J2,5*%
%TO.N,Net-(J2-Pad5)*%
X105530000Y-63535000D03*
%TD*%
D10*
%TO.P,J3,1,VBUS*%
%TO.N,USB_HOST_5V*%
X134000000Y-138253000D03*
D11*
%TO.P,J3,2,D-*%
%TO.N,USB_HOST_N*%
X136500000Y-138253000D03*
%TO.P,J3,3,D+*%
%TO.N,USB_HOST_P*%
X138500000Y-138253000D03*
%TO.P,J3,4,GND*%
%TO.N,GND*%
X141000000Y-138253000D03*
D30*
%TO.P,J3,5,Shield*%
X144070000Y-140963000D03*
X130930000Y-140963000D03*
%TD*%
D31*
%TO.P,U3,1,VI*%
%TO.N,+3V3*%
X193643000Y-69657000D03*
%TO.P,U3,2,GND*%
%TO.N,GND*%
X193643000Y-67757000D03*
%TO.P,U3,3,VO*%
%TO.N,VDDA*%
X191643000Y-68707000D03*
%TD*%
D32*
%TO.P,C4,1*%
%TO.N,GND*%
X186595600Y-80220200D03*
%TO.P,C4,2*%
%TO.N,+3V3*%
X186595600Y-78320200D03*
%TD*%
%TO.P,C7,1*%
%TO.N,GND*%
X181595600Y-80220200D03*
%TO.P,C7,2*%
%TO.N,+3V3*%
X181595600Y-78320200D03*
%TD*%
D33*
%TO.P,C8,1*%
%TO.N,GND*%
X188087000Y-65598000D03*
%TO.P,C8,2*%
%TO.N,Net-(C8-Pad2)*%
X188087000Y-67498000D03*
%TD*%
D14*
%TO.P,C9,1*%
%TO.N,GND*%
X180888600Y-69596000D03*
%TO.P,C9,2*%
%TO.N,Net-(C9-Pad2)*%
X182788600Y-69596000D03*
%TD*%
D33*
%TO.P,C11,1*%
%TO.N,MIC_BIAS*%
X184835800Y-89982000D03*
%TO.P,C11,2*%
%TO.N,GND*%
X184835800Y-91882000D03*
%TD*%
D34*
%TO.P,J8,1,Pin_1*%
%TO.N,Net-(C10-Pad2)*%
X197000000Y-90000000D03*
D35*
%TO.P,J8,2,Pin_2*%
%TO.N,GND*%
X197000000Y-92500000D03*
%TD*%
D36*
%TO.P,R14,1*%
%TO.N,MIC_BIAS*%
X188087500Y-90000000D03*
%TO.P,R14,2*%
%TO.N,Net-(C10-Pad2)*%
X189912500Y-90000000D03*
%TD*%
D28*
%TO.P,J1,*%
%TO.N,*%
X133430000Y-53535000D03*
X143430000Y-53535000D03*
D29*
%TO.P,J1,1*%
%TO.N,unconnected-(J1-Pad1)*%
X145930000Y-63535000D03*
%TO.P,J1,2*%
%TO.N,unconnected-(J1-Pad2)*%
X143430000Y-66035000D03*
%TO.P,J1,3*%
%TO.N,unconnected-(J1-Pad3)*%
X138430000Y-63535000D03*
%TO.P,J1,4*%
%TO.N,Net-(J1-Pad4)*%
X133430000Y-66035000D03*
%TO.P,J1,5*%
%TO.N,Net-(D1-Pad2)*%
X130930000Y-63535000D03*
%TD*%
D37*
%TO.P,J7,1,Pin_1*%
%TO.N,+3V3*%
X196850000Y-123000000D03*
D27*
%TO.P,J7,2,Pin_2*%
%TO.N,SENS_I2C_SCL*%
X196850000Y-125500000D03*
%TO.P,J7,3,Pin_3*%
%TO.N,SENS_I2C_SDA*%
X196850000Y-128000000D03*
%TO.P,J7,4,Pin_4*%
%TO.N,SENS_XOUT_RIGHT*%
X196850000Y-130500000D03*
%TO.P,J7,5,Pin_5*%
%TO.N,GND*%
X196850000Y-133000000D03*
%TD*%
D21*
%TO.P,R4,1*%
%TO.N,+3V3*%
X148486500Y-71120000D03*
%TO.P,R4,2*%
%TO.N,MIDI_IN*%
X146661500Y-71120000D03*
%TD*%
D28*
%TO.P,U6,1,TXD*%
%TO.N,ESP8266_UART_TX*%
X118711000Y-86204000D03*
%TO.P,U6,2,CH_PD*%
%TO.N,unconnected-(U6-Pad2)*%
X116171000Y-86204000D03*
%TO.P,U6,3,RST*%
%TO.N,unconnected-(U6-Pad3)*%
X113631000Y-86204000D03*
%TO.P,U6,4,VCC*%
%TO.N,+3V3*%
X111091000Y-86204000D03*
%TO.P,U6,5,RXD*%
%TO.N,ESP8266_UART_RX*%
X111091000Y-88744000D03*
%TO.P,U6,6,GPIO0*%
%TO.N,unconnected-(U6-Pad6)*%
X113631000Y-88744000D03*
%TO.P,U6,7,GPIO2*%
%TO.N,unconnected-(U6-Pad7)*%
X116171000Y-88744000D03*
D38*
%TO.P,U6,8,GND*%
%TO.N,GND*%
X118711000Y-88744000D03*
%TD*%
D16*
%TO.P,J6,*%
%TO.N,*%
X193000000Y-59468000D03*
X193000000Y-53468000D03*
D17*
%TO.P,J6,R*%
%TO.N,HP_R*%
X189525000Y-55968000D03*
X196475000Y-55968000D03*
%TO.P,J6,S*%
%TO.N,HP_GND*%
X189525000Y-52768000D03*
X196475000Y-52768000D03*
%TO.P,J6,T*%
%TO.N,HP_L*%
X196475000Y-59468000D03*
X189525000Y-59468000D03*
%TD*%
D14*
%TO.P,C10,1*%
%TO.N,MIC*%
X188050000Y-85000000D03*
%TO.P,C10,2*%
%TO.N,Net-(C10-Pad2)*%
X189950000Y-85000000D03*
%TD*%
D21*
%TO.P,R2,1*%
%TO.N,+3V3*%
X121689500Y-77343000D03*
%TO.P,R2,2*%
%TO.N,Net-(J2-Pad4)*%
X119864500Y-77343000D03*
%TD*%
D39*
%TO.P,C6,1*%
%TO.N,GND*%
X147347000Y-74901000D03*
%TO.P,C6,2*%
%TO.N,V_USB*%
X145447000Y-74901000D03*
%TD*%
D36*
%TO.P,R6,1*%
%TO.N,+3V3*%
X174620200Y-90064800D03*
%TO.P,R6,2*%
%TO.N,I2C_SDA_3V3*%
X176445200Y-90064800D03*
%TD*%
D39*
%TO.P,C12,1*%
%TO.N,GND*%
X147347000Y-78330000D03*
%TO.P,C12,2*%
%TO.N,V_USB*%
X145447000Y-78330000D03*
%TD*%
D40*
%TO.P,,1*%
%TO.N,N/C*%
X105000000Y-75000000D03*
%TD*%
%TO.P,,1*%
%TO.N,N/C*%
X195000000Y-145000000D03*
%TD*%
D21*
%TO.P,R8,1*%
%TO.N,+3V3*%
X183758500Y-99412000D03*
%TO.P,R8,2*%
%TO.N,SENS_I2C_SDA*%
X181933500Y-99412000D03*
%TD*%
D39*
%TO.P,C5,1*%
%TO.N,GND*%
X147347000Y-81632000D03*
%TO.P,C5,2*%
%TO.N,V_USB*%
X145447000Y-81632000D03*
%TD*%
D36*
%TO.P,R7,1*%
%TO.N,+3V3*%
X178157500Y-99412000D03*
%TO.P,R7,2*%
%TO.N,SENS_I2C_SCL*%
X179982500Y-99412000D03*
%TD*%
D40*
%TO.P,,1*%
%TO.N,N/C*%
X195000000Y-75000000D03*
%TD*%
%TO.P,REF\u002A\u002A,1*%
%TO.N,N/C*%
X105000000Y-145000000D03*
%TD*%
D41*
%TO.P,J10,1,Pin_1*%
%TO.N,GND*%
X133300000Y-92800000D03*
D19*
%TO.P,J10,2,Pin_2*%
%TO.N,+3V3*%
X135800000Y-92800000D03*
%TO.P,J10,3,Pin_3*%
%TO.N,ROT_CLICK_SW*%
X138300000Y-92800000D03*
%TO.P,J10,4,Pin_4*%
%TO.N,ROT_CLICK_DT*%
X140800000Y-92800000D03*
%TO.P,J10,5,Pin_5*%
%TO.N,ROT_CLICK_CLK*%
X143300000Y-92800000D03*
%TD*%
D21*
%TO.P,R5,1*%
%TO.N,+3V3*%
X178473400Y-92858800D03*
%TO.P,R5,2*%
%TO.N,I2C_SCL_3V3*%
X176648400Y-92858800D03*
%TD*%
D42*
%TO.N,GND*%
X147286000Y-74901000D03*
X182499000Y-52867000D03*
X193650000Y-67160000D03*
X185674000Y-71628000D03*
X185674000Y-70583000D03*
X186783000Y-70583000D03*
X180848000Y-69519800D03*
X147286000Y-78330000D03*
X187960000Y-71628000D03*
X141610000Y-82730000D03*
X147286000Y-81632000D03*
X184092200Y-80220200D03*
X184861200Y-91897200D03*
X197927000Y-67310000D03*
X188000000Y-70583000D03*
X142968000Y-72234000D03*
X185674000Y-72742000D03*
X186783000Y-72742000D03*
X197927000Y-70104000D03*
X187960000Y-72742000D03*
X186800000Y-71700000D03*
X175514000Y-52867000D03*
X188112400Y-65557400D03*
%TO.N,HP_L*%
X196342000Y-59690000D03*
X189615500Y-59558500D03*
%TO.N,HP_R*%
X196475000Y-55968000D03*
X189738000Y-56134000D03*
%TO.N,+3V3*%
X178172400Y-99412000D03*
X149190000Y-71160000D03*
X178969410Y-69215000D03*
X121700000Y-77375000D03*
X184112600Y-78320200D03*
X183760400Y-99412000D03*
X178477200Y-92858800D03*
X174616400Y-90064800D03*
X193630000Y-69650000D03*
%TO.N,I2C_SDA_3V3*%
X177012600Y-76606400D03*
%TO.N,I2C_SCL_3V3*%
X178765200Y-77012800D03*
%TO.N,SENS_I2C_SDA*%
X181610000Y-99412000D03*
%TO.N,SENS_I2C_SCL*%
X180340000Y-99412000D03*
%TO.N,SENS_XOUT_RIGHT*%
X138925000Y-130475000D03*
%TO.N,SENS_XOUT_CENTER*%
X137075000Y-131250000D03*
%TO.N,V_USB*%
X139793000Y-72488000D03*
%TO.N,MIC*%
X184327800Y-67259200D03*
X188036200Y-84963000D03*
%TO.N,MIC_BIAS*%
X184853800Y-90000000D03*
X182600600Y-67360800D03*
%TD*%
D43*
%TO.N,HP_L*%
X189975010Y-61950010D02*
X189975010Y-59918010D01*
X189975010Y-59918010D02*
X189615500Y-59558500D01*
%TO.N,LINE_IN_L*%
X186050000Y-60706000D02*
X184720000Y-59376000D01*
X186050000Y-65075000D02*
X186050000Y-60706000D01*
X184720000Y-59376000D02*
X182475000Y-59376000D01*
%TO.N,LINE_IN_R*%
X185284000Y-55876000D02*
X182475000Y-55876000D01*
X186550000Y-57142000D02*
X185284000Y-55876000D01*
X186550000Y-60820000D02*
X186550000Y-57142000D01*
%TO.N,HP_GND*%
X196850000Y-65151000D02*
X196850000Y-63378000D01*
X196850000Y-63378000D02*
X195702000Y-62230000D01*
D44*
X193032000Y-62230000D02*
X195702000Y-62230000D01*
D43*
%TO.N,HP_R*%
X199009000Y-59563000D02*
X199009000Y-57531000D01*
%TO.N,SENS_XOUT_RIGHT*%
X138950000Y-130500000D02*
X138925000Y-130475000D01*
X196850000Y-130500000D02*
X138950000Y-130500000D01*
%TO.N,I2C_SCL_3V3*%
X144873000Y-110373000D02*
X151086000Y-116586000D01*
X144873000Y-106524000D02*
X144873000Y-110373000D01*
X143222000Y-104873000D02*
X144873000Y-106524000D01*
X140682000Y-104873000D02*
X143222000Y-104873000D01*
X139452000Y-106103000D02*
X140682000Y-104873000D01*
X139452000Y-108048000D02*
X139452000Y-106103000D01*
%TO.N,I2C_SDA_3V3*%
X139031000Y-103730000D02*
X136952000Y-105809000D01*
X143984000Y-103730000D02*
X139031000Y-103730000D01*
X136952000Y-105809000D02*
X136952000Y-108048000D01*
X145762000Y-106905000D02*
X145762000Y-105508000D01*
X145762000Y-105508000D02*
X143984000Y-103730000D01*
X154173000Y-115316000D02*
X145762000Y-106905000D01*
X158491000Y-115316000D02*
X154173000Y-115316000D01*
D44*
X158491000Y-115316000D02*
X169164000Y-115316000D01*
D43*
X136999000Y-116952000D02*
X136999000Y-108048000D01*
%TO.N,I2C_SCL_3V3*%
X139452000Y-116580000D02*
X139189500Y-116842500D01*
X139452000Y-108048000D02*
X139452000Y-116580000D01*
D44*
X135500000Y-120532000D02*
X139189500Y-116842500D01*
D45*
%TO.N,USB_HOST_5V*%
X134000000Y-136000000D02*
X134000000Y-138253000D01*
X102074000Y-104074000D02*
X134000000Y-136000000D01*
D44*
%TO.N,Net-(J2-Pad5)*%
X105530000Y-63535000D02*
X109693000Y-63535000D01*
X118548000Y-72390000D02*
X119737500Y-72390000D01*
X109693000Y-63535000D02*
X118548000Y-72390000D01*
%TO.N,Net-(J2-Pad4)*%
X119338000Y-77343000D02*
X119864500Y-77343000D01*
X108030000Y-66035000D02*
X119338000Y-77343000D01*
%TO.N,GND*%
X184092200Y-80220200D02*
X181595600Y-80220200D01*
X187550000Y-72450000D02*
X186800000Y-71700000D01*
X188881000Y-73819000D02*
X189250000Y-73450000D01*
X188550000Y-74150000D02*
X188550000Y-73234000D01*
X188550000Y-73450000D02*
X186800000Y-71700000D01*
X188122000Y-70450000D02*
X187960000Y-70612000D01*
X188050000Y-74150000D02*
X188050000Y-72734000D01*
X188050000Y-72734000D02*
X187960000Y-72644000D01*
X189250000Y-70450000D02*
X188122000Y-70450000D01*
X189250000Y-73450000D02*
X188550000Y-73450000D01*
X186595600Y-80220200D02*
X184092200Y-80220200D01*
X188550000Y-73234000D02*
X187960000Y-72644000D01*
X188550000Y-74150000D02*
X188881000Y-73819000D01*
X188050000Y-74150000D02*
X188550000Y-74150000D01*
X189250000Y-72450000D02*
X187550000Y-72450000D01*
%TO.N,VDDA*%
X191643000Y-68707000D02*
X195707000Y-68707000D01*
X191643000Y-70104000D02*
X191643000Y-68707000D01*
X195707000Y-68707000D02*
X195707000Y-69850000D01*
X190297000Y-71450000D02*
X191643000Y-70104000D01*
X195707000Y-68707000D02*
X195961000Y-68453000D01*
X195961000Y-68453000D02*
X195961000Y-67310000D01*
X189250000Y-71450000D02*
X190297000Y-71450000D01*
X195707000Y-69850000D02*
X195961000Y-70104000D01*
%TO.N,Net-(D1-Pad2)*%
X133858000Y-80010000D02*
X136144000Y-77724000D01*
X136144000Y-77724000D02*
X136144000Y-64770000D01*
X134909000Y-63535000D02*
X130930000Y-63535000D01*
X132715000Y-80010000D02*
X128699500Y-80010000D01*
X128699500Y-80010000D02*
X128270000Y-80439500D01*
X136144000Y-64770000D02*
X134909000Y-63535000D01*
X132715000Y-80010000D02*
X133858000Y-80010000D01*
%TO.N,Net-(D1-Pad1)*%
X132715000Y-77470000D02*
X129364500Y-77470000D01*
X128270000Y-75334500D02*
X128270000Y-78564500D01*
X129364500Y-77470000D02*
X128270000Y-78564500D01*
%TO.N,Net-(J1-Pad4)*%
X133430000Y-66035000D02*
X133430000Y-68349500D01*
X133430000Y-68349500D02*
X128270000Y-73509500D01*
%TO.N,LINE_IN_L*%
X181356000Y-61503000D02*
X177652000Y-61503000D01*
X182475000Y-59376000D02*
X182475000Y-60384000D01*
X177652000Y-61503000D02*
X175525000Y-59376000D01*
X186050000Y-69250000D02*
X186050000Y-65075000D01*
X182475000Y-60384000D02*
X181356000Y-61503000D01*
%TO.N,LINE_IN_R*%
X175525000Y-55876000D02*
X182475000Y-55876000D01*
X186550000Y-60820000D02*
X186550000Y-69250000D01*
%TO.N,HP_L*%
X189615500Y-59558500D02*
X189525000Y-59468000D01*
X189975010Y-70673012D02*
X189975010Y-61950010D01*
X189698022Y-70950000D02*
X189975010Y-70673012D01*
X189250000Y-70950000D02*
X189698022Y-70950000D01*
%TO.N,HP_GND*%
X196475000Y-52768000D02*
X196475000Y-52584000D01*
X191450000Y-60648000D02*
X193032000Y-62230000D01*
X191516000Y-71374000D02*
X190940000Y-71950000D01*
X196850000Y-65151000D02*
X196850000Y-70993000D01*
X196469000Y-71374000D02*
X191516000Y-71374000D01*
X190940000Y-71950000D02*
X189250000Y-71950000D01*
X191747000Y-50546000D02*
X189525000Y-52768000D01*
X196850000Y-70993000D02*
X196469000Y-71374000D01*
X191450000Y-54326500D02*
X191450000Y-60648000D01*
X194437000Y-50546000D02*
X191747000Y-50546000D01*
X189525000Y-52768000D02*
X189891500Y-52768000D01*
X189525000Y-52768000D02*
X190182000Y-52768000D01*
X196475000Y-52584000D02*
X194437000Y-50546000D01*
X189891500Y-52768000D02*
X191450000Y-54326500D01*
%TO.N,HP_R*%
X197446000Y-55968000D02*
X196475000Y-55968000D01*
X189250000Y-72950000D02*
X192988000Y-72950000D01*
X199009000Y-57531000D02*
X197446000Y-55968000D01*
X199009000Y-71755000D02*
X199009000Y-59563000D01*
X198628000Y-72136000D02*
X199009000Y-71755000D01*
X192988000Y-72950000D02*
X193802000Y-72136000D01*
X193802000Y-72136000D02*
X198628000Y-72136000D01*
%TO.N,+3V3*%
X184112600Y-78320200D02*
X186595600Y-78320200D01*
X187550000Y-74247800D02*
X187500010Y-74297790D01*
X181595600Y-78320200D02*
X184112600Y-78320200D01*
X121689500Y-77364500D02*
X121700000Y-77375000D01*
X187550000Y-74150000D02*
X187550000Y-74247800D01*
X178969410Y-69754410D02*
X178969410Y-69215000D01*
X180665000Y-71450000D02*
X178969410Y-69754410D01*
X187500010Y-77415790D02*
X186595600Y-78320200D01*
X187500010Y-74297790D02*
X187500010Y-77415790D01*
X121689500Y-77343000D02*
X121689500Y-77364500D01*
X184350000Y-71450000D02*
X180665000Y-71450000D01*
%TO.N,I2C_SDA_3V3*%
X184762232Y-76022200D02*
X177596800Y-76022200D01*
X176438600Y-90007400D02*
X177012600Y-89433400D01*
X169164000Y-115316000D02*
X171958000Y-112522000D01*
X171958000Y-94488000D02*
X176438600Y-90007400D01*
X186050000Y-74150000D02*
X186050000Y-74734432D01*
X171958000Y-112522000D02*
X171958000Y-94488000D01*
X137000000Y-117000000D02*
X133000000Y-121000000D01*
X186050000Y-74734432D02*
X184762232Y-76022200D01*
X177596800Y-76022200D02*
X177012600Y-76606400D01*
X177012600Y-89433400D02*
X177012600Y-76606400D01*
%TO.N,I2C_SCL_3V3*%
X176641800Y-92852200D02*
X172974000Y-96520000D01*
X172974000Y-96520000D02*
X172974000Y-113030000D01*
X178765200Y-77012800D02*
X178765200Y-90728800D01*
X178765200Y-90728800D02*
X176641800Y-92852200D01*
X169418000Y-116586000D02*
X151086000Y-116586000D01*
X178765200Y-77012800D02*
X184835800Y-77012800D01*
X172974000Y-113030000D02*
X169418000Y-116586000D01*
X184835800Y-77012800D02*
X187050000Y-74798600D01*
X187050000Y-74798600D02*
X187050000Y-74150000D01*
X135500000Y-121000000D02*
X135500000Y-120532000D01*
%TO.N,MIDI_IN*%
X154813000Y-56763000D02*
X153380000Y-55330000D01*
X151130000Y-59182000D02*
X153924000Y-59182000D01*
X154813000Y-58293000D02*
X154813000Y-56763000D01*
X139446000Y-71120000D02*
X146661500Y-71120000D01*
X137668000Y-78740000D02*
X137668000Y-72898000D01*
X146661500Y-71120000D02*
X149225000Y-68556500D01*
X138938000Y-80010000D02*
X137668000Y-78740000D01*
X153924000Y-59182000D02*
X154813000Y-58293000D01*
X149225000Y-68556500D02*
X149225000Y-61087000D01*
X149225000Y-61087000D02*
X151130000Y-59182000D01*
X137668000Y-72898000D02*
X139446000Y-71120000D01*
X141605000Y-80010000D02*
X138938000Y-80010000D01*
%TO.N,I2S_DIN*%
X152492800Y-73110000D02*
X151130000Y-74472800D01*
X184964022Y-75184000D02*
X185550000Y-74598022D01*
X185550000Y-74598022D02*
X185550000Y-74150000D01*
X152264400Y-76907600D02*
X171377400Y-76907600D01*
X152136801Y-76775001D02*
X152136801Y-76780001D01*
X151130000Y-74472800D02*
X151130000Y-75768200D01*
X171377400Y-76907600D02*
X173101000Y-75184000D01*
X153380000Y-73110000D02*
X152492800Y-73110000D01*
X151130000Y-75768200D02*
X152136801Y-76775001D01*
X152136801Y-76780001D02*
X152264400Y-76907600D01*
X173101000Y-75184000D02*
X184964022Y-75184000D01*
D46*
%TO.N,I2S_DOUT*%
X158893800Y-75713800D02*
X153252200Y-75713800D01*
X185050000Y-74150000D02*
X184756200Y-74443800D01*
X160163800Y-74443800D02*
X158893800Y-75713800D01*
X184756200Y-74443800D02*
X160163800Y-74443800D01*
D44*
%TO.N,I2S_SCLK*%
X168620000Y-65490000D02*
X176580000Y-73450000D01*
X176580000Y-73450000D02*
X184350000Y-73450000D01*
%TO.N,I2S_LRCLK*%
X167995600Y-64211200D02*
X169799000Y-64211200D01*
X168620000Y-68030000D02*
X167468200Y-66878200D01*
X167335200Y-66725800D02*
X167335200Y-64871600D01*
X167335200Y-64871600D02*
X167995600Y-64211200D01*
X167468200Y-66858800D02*
X167335200Y-66725800D01*
X167468200Y-66878200D02*
X167468200Y-66858800D01*
X169799000Y-64211200D02*
X178537800Y-72950000D01*
X178537800Y-72950000D02*
X184350000Y-72950000D01*
%TO.N,I2S_MCLK*%
X184332800Y-71932800D02*
X184350000Y-71950000D01*
X180142800Y-71932800D02*
X184332800Y-71932800D01*
X168620000Y-60410000D02*
X180142800Y-71932800D01*
%TO.N,MIDI_OUT*%
X125476000Y-64770000D02*
X132376000Y-57870000D01*
X132376000Y-57870000D02*
X153380000Y-57870000D01*
X121562500Y-72390000D02*
X122682000Y-72390000D01*
X122682000Y-72390000D02*
X125476000Y-69596000D01*
X125476000Y-69596000D02*
X125476000Y-64770000D01*
D45*
%TO.N,USB_HOST_5V*%
X156430800Y-59089200D02*
X156430800Y-52422800D01*
X155033000Y-51025000D02*
X106265000Y-51025000D01*
X156430800Y-52422800D02*
X155033000Y-51025000D01*
X106265000Y-51025000D02*
X102074000Y-55216000D01*
X102074000Y-55216000D02*
X102074000Y-104074000D01*
D44*
%TO.N,SENS_XOUT_CENTER*%
X145750000Y-131250000D02*
X161500000Y-147000000D01*
X137075000Y-131250000D02*
X145750000Y-131250000D01*
D45*
%TO.N,V_USB*%
X141605000Y-72266000D02*
X141637000Y-72234000D01*
X141383000Y-72488000D02*
X141637000Y-72234000D01*
X141605000Y-74930000D02*
X145418000Y-74930000D01*
X139793000Y-72488000D02*
X141383000Y-72488000D01*
X145418000Y-74930000D02*
X145447000Y-74901000D01*
X141605000Y-74930000D02*
X141605000Y-72266000D01*
X145447000Y-74901000D02*
X145447000Y-81632000D01*
D44*
%TO.N,ESP8266_UART_RX*%
X110103400Y-84550000D02*
X108957400Y-85696000D01*
X110151200Y-88744000D02*
X111091000Y-88744000D01*
X168620000Y-83270000D02*
X170375000Y-81515000D01*
X155575000Y-84550000D02*
X110103400Y-84550000D01*
X108957400Y-85696000D02*
X108957400Y-87550200D01*
X170375000Y-80225000D02*
X169600000Y-79450000D01*
X160675000Y-79450000D02*
X155575000Y-84550000D01*
X108957400Y-87550200D02*
X110151200Y-88744000D01*
X169600000Y-79450000D02*
X160675000Y-79450000D01*
X170375000Y-81515000D02*
X170375000Y-80225000D01*
%TO.N,ESP8266_UART_TX*%
X119676200Y-87169200D02*
X118711000Y-86204000D01*
D43*
X155905800Y-87169200D02*
X156129800Y-86945200D01*
D44*
X133730800Y-87169200D02*
X119676200Y-87169200D01*
X162345000Y-80730000D02*
X168620000Y-80730000D01*
D43*
X155905800Y-87169200D02*
X133730800Y-87169200D01*
D44*
X156129800Y-86945200D02*
X162345000Y-80730000D01*
%TO.N,Net-(C8-Pad2)*%
X188050000Y-69250000D02*
X188050000Y-67535000D01*
X188050000Y-67535000D02*
X188087000Y-67498000D01*
%TO.N,Net-(C9-Pad2)*%
X183642600Y-70450000D02*
X182788600Y-69596000D01*
X184350000Y-70450000D02*
X183642600Y-70450000D01*
%TO.N,Net-(C10-Pad2)*%
X189912500Y-90000000D02*
X189912500Y-85037500D01*
X189912500Y-85037500D02*
X189950000Y-85000000D01*
X197000000Y-90000000D02*
X189912500Y-90000000D01*
%TO.N,MIC*%
X185550000Y-69250000D02*
X185550000Y-68481400D01*
X185550000Y-68481400D02*
X184327800Y-67259200D01*
%TO.N,MIC_BIAS*%
X185050000Y-69250000D02*
X184489800Y-69250000D01*
X184489800Y-69250000D02*
X182600600Y-67360800D01*
X188087500Y-90000000D02*
X184853800Y-90000000D01*
%TD*%
M02*
